ISO-10303-21;
HEADER;
/* Generated by software containing ST-Developer
 * from STEP Tools, Inc. (www.steptools.com) 
 */

FILE_DESCRIPTION(
/* description */ (''),
/* implementation_level */ '2;1');

FILE_NAME(
/* name */ 'Truss.step',
/* time_stamp */ '2026-09-03T08:00:04-04:00',
/* author */ (''),
/* organization */ (''),
/* preprocessor_version */ 'ST-DEVELOPER v20.1',
/* originating_system */ 'Autodesk Translation Framework v15.8.0.0',
/* authorisation */ '');

FILE_SCHEMA (('AUTOMOTIVE_DESIGN { 1 0 10303 214 3 1 1 }'));
ENDSEC;

DATA;
#10=MECHANICAL_DESIGN_GEOMETRIC_PRESENTATION_REPRESENTATION('',(#13,#14,
#15,#16,#17,#18),#957);
#11=SHAPE_REPRESENTATION_RELATIONSHIP('SRR','None',#967,#12);
#12=ADVANCED_BREP_SHAPE_REPRESENTATION('',(#19,#20,#21,#22,#23,#24),#956);
#13=STYLED_ITEM('',(#976),#19);
#14=STYLED_ITEM('',(#977),#20);
#15=STYLED_ITEM('',(#977),#21);
#16=STYLED_ITEM('',(#977),#22);
#17=STYLED_ITEM('',(#977),#23);
#18=STYLED_ITEM('',(#977),#24);
#19=MANIFOLD_SOLID_BREP('Body1',#568);
#20=MANIFOLD_SOLID_BREP('Body2',#569);
#21=MANIFOLD_SOLID_BREP('Body3',#570);
#22=MANIFOLD_SOLID_BREP('Body4',#571);
#23=MANIFOLD_SOLID_BREP('Body5',#572);
#24=MANIFOLD_SOLID_BREP('Body6',#573);
#25=FACE_BOUND('',#120,.T.);
#26=FACE_BOUND('',#121,.T.);
#27=FACE_BOUND('',#122,.T.);
#28=FACE_BOUND('',#123,.T.);
#29=FACE_BOUND('',#124,.T.);
#30=FACE_BOUND('',#125,.T.);
#31=FACE_BOUND('',#126,.T.);
#32=FACE_BOUND('',#127,.T.);
#33=FACE_BOUND('',#129,.T.);
#34=FACE_BOUND('',#130,.T.);
#35=FACE_BOUND('',#131,.T.);
#36=FACE_BOUND('',#132,.T.);
#37=FACE_BOUND('',#133,.T.);
#38=FACE_BOUND('',#134,.T.);
#39=FACE_BOUND('',#135,.T.);
#40=FACE_BOUND('',#136,.T.);
#41=PLANE('',#590);
#42=PLANE('',#591);
#43=PLANE('',#592);
#44=PLANE('',#596);
#45=PLANE('',#597);
#46=PLANE('',#598);
#47=PLANE('',#605);
#48=PLANE('',#606);
#49=PLANE('',#607);
#50=PLANE('',#611);
#51=PLANE('',#612);
#52=PLANE('',#613);
#53=PLANE('',#614);
#54=PLANE('',#615);
#55=PLANE('',#616);
#56=PLANE('',#620);
#57=PLANE('',#621);
#58=PLANE('',#625);
#59=PLANE('',#626);
#60=PLANE('',#630);
#61=PLANE('',#631);
#62=PLANE('',#635);
#63=PLANE('',#636);
#64=PLANE('',#640);
#65=PLANE('',#641);
#66=FACE_OUTER_BOUND('',#101,.T.);
#67=FACE_OUTER_BOUND('',#102,.T.);
#68=FACE_OUTER_BOUND('',#103,.T.);
#69=FACE_OUTER_BOUND('',#104,.T.);
#70=FACE_OUTER_BOUND('',#105,.T.);
#71=FACE_OUTER_BOUND('',#106,.T.);
#72=FACE_OUTER_BOUND('',#107,.T.);
#73=FACE_OUTER_BOUND('',#108,.T.);
#74=FACE_OUTER_BOUND('',#109,.T.);
#75=FACE_OUTER_BOUND('',#110,.T.);
#76=FACE_OUTER_BOUND('',#111,.T.);
#77=FACE_OUTER_BOUND('',#112,.T.);
#78=FACE_OUTER_BOUND('',#113,.T.);
#79=FACE_OUTER_BOUND('',#114,.T.);
#80=FACE_OUTER_BOUND('',#115,.T.);
#81=FACE_OUTER_BOUND('',#116,.T.);
#82=FACE_OUTER_BOUND('',#117,.T.);
#83=FACE_OUTER_BOUND('',#118,.T.);
#84=FACE_OUTER_BOUND('',#119,.T.);
#85=FACE_OUTER_BOUND('',#128,.T.);
#86=FACE_OUTER_BOUND('',#137,.T.);
#87=FACE_OUTER_BOUND('',#138,.T.);
#88=FACE_OUTER_BOUND('',#139,.T.);
#89=FACE_OUTER_BOUND('',#140,.T.);
#90=FACE_OUTER_BOUND('',#141,.T.);
#91=FACE_OUTER_BOUND('',#142,.T.);
#92=FACE_OUTER_BOUND('',#143,.T.);
#93=FACE_OUTER_BOUND('',#144,.T.);
#94=FACE_OUTER_BOUND('',#145,.T.);
#95=FACE_OUTER_BOUND('',#146,.T.);
#96=FACE_OUTER_BOUND('',#147,.T.);
#97=FACE_OUTER_BOUND('',#148,.T.);
#98=FACE_OUTER_BOUND('',#149,.T.);
#99=FACE_OUTER_BOUND('',#150,.T.);
#100=FACE_OUTER_BOUND('',#151,.T.);
#101=EDGE_LOOP('',(#385,#386,#387,#388));
#102=EDGE_LOOP('',(#389,#390,#391,#392));
#103=EDGE_LOOP('',(#393,#394,#395,#396));
#104=EDGE_LOOP('',(#397,#398,#399,#400));
#105=EDGE_LOOP('',(#401,#402,#403,#404));
#106=EDGE_LOOP('',(#405,#406,#407,#408));
#107=EDGE_LOOP('',(#409,#410,#411,#412));
#108=EDGE_LOOP('',(#413,#414,#415,#416));
#109=EDGE_LOOP('',(#417,#418,#419,#420));
#110=EDGE_LOOP('',(#421,#422,#423,#424));
#111=EDGE_LOOP('',(#425,#426,#427,#428));
#112=EDGE_LOOP('',(#429,#430,#431,#432));
#113=EDGE_LOOP('',(#433,#434,#435,#436));
#114=EDGE_LOOP('',(#437,#438,#439,#440));
#115=EDGE_LOOP('',(#441,#442,#443,#444));
#116=EDGE_LOOP('',(#445,#446,#447,#448));
#117=EDGE_LOOP('',(#449,#450,#451,#452));
#118=EDGE_LOOP('',(#453,#454,#455,#456));
#119=EDGE_LOOP('',(#457,#458,#459,#460));
#120=EDGE_LOOP('',(#461));
#121=EDGE_LOOP('',(#462,#463,#464));
#122=EDGE_LOOP('',(#465));
#123=EDGE_LOOP('',(#466));
#124=EDGE_LOOP('',(#467,#468,#469));
#125=EDGE_LOOP('',(#470));
#126=EDGE_LOOP('',(#471,#472,#473));
#127=EDGE_LOOP('',(#474));
#128=EDGE_LOOP('',(#475,#476,#477,#478));
#129=EDGE_LOOP('',(#479));
#130=EDGE_LOOP('',(#480,#481,#482));
#131=EDGE_LOOP('',(#483));
#132=EDGE_LOOP('',(#484));
#133=EDGE_LOOP('',(#485,#486,#487));
#134=EDGE_LOOP('',(#488));
#135=EDGE_LOOP('',(#489,#490,#491));
#136=EDGE_LOOP('',(#492));
#137=EDGE_LOOP('',(#493,#494,#495,#496));
#138=EDGE_LOOP('',(#497));
#139=EDGE_LOOP('',(#498));
#140=EDGE_LOOP('',(#499,#500,#501,#502));
#141=EDGE_LOOP('',(#503));
#142=EDGE_LOOP('',(#504));
#143=EDGE_LOOP('',(#505,#506,#507,#508));
#144=EDGE_LOOP('',(#509));
#145=EDGE_LOOP('',(#510));
#146=EDGE_LOOP('',(#511,#512,#513,#514));
#147=EDGE_LOOP('',(#515));
#148=EDGE_LOOP('',(#516));
#149=EDGE_LOOP('',(#517,#518,#519,#520));
#150=EDGE_LOOP('',(#521));
#151=EDGE_LOOP('',(#522));
#152=LINE('',#808,#201);
#153=LINE('',#813,#202);
#154=LINE('',#815,#203);
#155=LINE('',#817,#204);
#156=LINE('',#818,#205);
#157=LINE('',#821,#206);
#158=LINE('',#823,#207);
#159=LINE('',#824,#208);
#160=LINE('',#826,#209);
#161=LINE('',#827,#210);
#162=LINE('',#832,#211);
#163=LINE('',#837,#212);
#164=LINE('',#839,#213);
#165=LINE('',#841,#214);
#166=LINE('',#842,#215);
#167=LINE('',#845,#216);
#168=LINE('',#847,#217);
#169=LINE('',#848,#218);
#170=LINE('',#850,#219);
#171=LINE('',#851,#220);
#172=LINE('',#856,#221);
#173=LINE('',#862,#222);
#174=LINE('',#867,#223);
#175=LINE('',#869,#224);
#176=LINE('',#871,#225);
#177=LINE('',#872,#226);
#178=LINE('',#875,#227);
#179=LINE('',#877,#228);
#180=LINE('',#878,#229);
#181=LINE('',#880,#230);
#182=LINE('',#881,#231);
#183=LINE('',#886,#232);
#184=LINE('',#891,#233);
#185=LINE('',#893,#234);
#186=LINE('',#895,#235);
#187=LINE('',#896,#236);
#188=LINE('',#899,#237);
#189=LINE('',#901,#238);
#190=LINE('',#902,#239);
#191=LINE('',#905,#240);
#192=LINE('',#907,#241);
#193=LINE('',#908,#242);
#194=LINE('',#910,#243);
#195=LINE('',#911,#244);
#196=LINE('',#918,#245);
#197=LINE('',#926,#246);
#198=LINE('',#934,#247);
#199=LINE('',#942,#248);
#200=LINE('',#950,#249);
#201=VECTOR('',#648,0.0905511811023624);
#202=VECTOR('',#653,0.393700787401575);
#203=VECTOR('',#654,0.393700787401575);
#204=VECTOR('',#655,0.393700787401575);
#205=VECTOR('',#656,0.393700787401575);
#206=VECTOR('',#659,0.393700787401575);
#207=VECTOR('',#660,0.393700787401575);
#208=VECTOR('',#661,0.393700787401575);
#209=VECTOR('',#664,0.393700787401575);
#210=VECTOR('',#665,0.393700787401575);
#211=VECTOR('',#670,0.0905511811023624);
#212=VECTOR('',#675,0.393700787401575);
#213=VECTOR('',#676,0.393700787401575);
#214=VECTOR('',#677,0.393700787401575);
#215=VECTOR('',#678,0.393700787401575);
#216=VECTOR('',#681,0.393700787401575);
#217=VECTOR('',#682,0.393700787401575);
#218=VECTOR('',#683,0.393700787401575);
#219=VECTOR('',#686,0.393700787401575);
#220=VECTOR('',#687,0.393700787401575);
#221=VECTOR('',#692,0.0917322834645657);
#222=VECTOR('',#699,0.0917322834645657);
#223=VECTOR('',#704,0.393700787401575);
#224=VECTOR('',#705,0.393700787401575);
#225=VECTOR('',#706,0.393700787401575);
#226=VECTOR('',#707,0.393700787401575);
#227=VECTOR('',#710,0.393700787401575);
#228=VECTOR('',#711,0.393700787401575);
#229=VECTOR('',#712,0.393700787401575);
#230=VECTOR('',#715,0.393700787401575);
#231=VECTOR('',#716,0.393700787401575);
#232=VECTOR('',#721,0.0917322834645669);
#233=VECTOR('',#726,0.393700787401575);
#234=VECTOR('',#727,0.393700787401575);
#235=VECTOR('',#728,0.393700787401575);
#236=VECTOR('',#729,0.393700787401575);
#237=VECTOR('',#732,0.393700787401575);
#238=VECTOR('',#733,0.393700787401575);
#239=VECTOR('',#734,0.393700787401575);
#240=VECTOR('',#737,0.393700787401575);
#241=VECTOR('',#738,0.393700787401575);
#242=VECTOR('',#739,0.393700787401575);
#243=VECTOR('',#742,0.393700787401575);
#244=VECTOR('',#743,0.393700787401575);
#245=VECTOR('',#752,0.0905511811023624);
#246=VECTOR('',#763,0.0917322834645657);
#247=VECTOR('',#774,0.0905511811023624);
#248=VECTOR('',#785,0.0917322834645669);
#249=VECTOR('',#796,0.0917322834645657);
#250=CIRCLE('',#588,0.0905511811023624);
#251=CIRCLE('',#589,0.0905511811023624);
#252=CIRCLE('',#594,0.0905511811023624);
#253=CIRCLE('',#595,0.0905511811023624);
#254=CIRCLE('',#600,0.0917322834645657);
#255=CIRCLE('',#601,0.0917322834645657);
#256=CIRCLE('',#603,0.0917322834645657);
#257=CIRCLE('',#604,0.0917322834645657);
#258=CIRCLE('',#609,0.0917322834645669);
#259=CIRCLE('',#610,0.0917322834645669);
#260=CIRCLE('',#618,0.0905511811023624);
#261=CIRCLE('',#619,0.0905511811023624);
#262=CIRCLE('',#623,0.0917322834645657);
#263=CIRCLE('',#624,0.0917322834645657);
#264=CIRCLE('',#628,0.0905511811023624);
#265=CIRCLE('',#629,0.0905511811023624);
#266=CIRCLE('',#633,0.0917322834645669);
#267=CIRCLE('',#634,0.0917322834645669);
#268=CIRCLE('',#638,0.0917322834645657);
#269=CIRCLE('',#639,0.0917322834645657);
#270=VERTEX_POINT('',#805);
#271=VERTEX_POINT('',#807);
#272=VERTEX_POINT('',#811);
#273=VERTEX_POINT('',#812);
#274=VERTEX_POINT('',#814);
#275=VERTEX_POINT('',#816);
#276=VERTEX_POINT('',#820);
#277=VERTEX_POINT('',#822);
#278=VERTEX_POINT('',#829);
#279=VERTEX_POINT('',#831);
#280=VERTEX_POINT('',#835);
#281=VERTEX_POINT('',#836);
#282=VERTEX_POINT('',#838);
#283=VERTEX_POINT('',#840);
#284=VERTEX_POINT('',#844);
#285=VERTEX_POINT('',#846);
#286=VERTEX_POINT('',#853);
#287=VERTEX_POINT('',#855);
#288=VERTEX_POINT('',#859);
#289=VERTEX_POINT('',#861);
#290=VERTEX_POINT('',#865);
#291=VERTEX_POINT('',#866);
#292=VERTEX_POINT('',#868);
#293=VERTEX_POINT('',#870);
#294=VERTEX_POINT('',#874);
#295=VERTEX_POINT('',#876);
#296=VERTEX_POINT('',#883);
#297=VERTEX_POINT('',#885);
#298=VERTEX_POINT('',#889);
#299=VERTEX_POINT('',#890);
#300=VERTEX_POINT('',#892);
#301=VERTEX_POINT('',#894);
#302=VERTEX_POINT('',#898);
#303=VERTEX_POINT('',#900);
#304=VERTEX_POINT('',#904);
#305=VERTEX_POINT('',#906);
#306=VERTEX_POINT('',#915);
#307=VERTEX_POINT('',#917);
#308=VERTEX_POINT('',#923);
#309=VERTEX_POINT('',#925);
#310=VERTEX_POINT('',#931);
#311=VERTEX_POINT('',#933);
#312=VERTEX_POINT('',#939);
#313=VERTEX_POINT('',#941);
#314=VERTEX_POINT('',#947);
#315=VERTEX_POINT('',#949);
#316=EDGE_CURVE('',#270,#270,#250,.T.);
#317=EDGE_CURVE('',#270,#271,#152,.T.);
#318=EDGE_CURVE('',#271,#271,#251,.T.);
#319=EDGE_CURVE('',#272,#273,#153,.T.);
#320=EDGE_CURVE('',#273,#274,#154,.T.);
#321=EDGE_CURVE('',#275,#274,#155,.T.);
#322=EDGE_CURVE('',#272,#275,#156,.T.);
#323=EDGE_CURVE('',#276,#272,#157,.T.);
#324=EDGE_CURVE('',#277,#275,#158,.T.);
#325=EDGE_CURVE('',#276,#277,#159,.T.);
#326=EDGE_CURVE('',#273,#276,#160,.T.);
#327=EDGE_CURVE('',#274,#277,#161,.T.);
#328=EDGE_CURVE('',#278,#278,#252,.T.);
#329=EDGE_CURVE('',#278,#279,#162,.T.);
#330=EDGE_CURVE('',#279,#279,#253,.T.);
#331=EDGE_CURVE('',#280,#281,#163,.T.);
#332=EDGE_CURVE('',#281,#282,#164,.T.);
#333=EDGE_CURVE('',#283,#282,#165,.T.);
#334=EDGE_CURVE('',#280,#283,#166,.T.);
#335=EDGE_CURVE('',#284,#280,#167,.T.);
#336=EDGE_CURVE('',#285,#283,#168,.T.);
#337=EDGE_CURVE('',#284,#285,#169,.T.);
#338=EDGE_CURVE('',#281,#284,#170,.T.);
#339=EDGE_CURVE('',#282,#285,#171,.T.);
#340=EDGE_CURVE('',#286,#286,#254,.T.);
#341=EDGE_CURVE('',#286,#287,#172,.T.);
#342=EDGE_CURVE('',#287,#287,#255,.T.);
#343=EDGE_CURVE('',#288,#288,#256,.T.);
#344=EDGE_CURVE('',#288,#289,#173,.T.);
#345=EDGE_CURVE('',#289,#289,#257,.T.);
#346=EDGE_CURVE('',#290,#291,#174,.T.);
#347=EDGE_CURVE('',#291,#292,#175,.T.);
#348=EDGE_CURVE('',#293,#292,#176,.T.);
#349=EDGE_CURVE('',#290,#293,#177,.T.);
#350=EDGE_CURVE('',#294,#290,#178,.T.);
#351=EDGE_CURVE('',#295,#293,#179,.T.);
#352=EDGE_CURVE('',#294,#295,#180,.T.);
#353=EDGE_CURVE('',#291,#294,#181,.T.);
#354=EDGE_CURVE('',#292,#295,#182,.T.);
#355=EDGE_CURVE('',#296,#296,#258,.T.);
#356=EDGE_CURVE('',#296,#297,#183,.T.);
#357=EDGE_CURVE('',#297,#297,#259,.T.);
#358=EDGE_CURVE('',#298,#299,#184,.T.);
#359=EDGE_CURVE('',#298,#300,#185,.T.);
#360=EDGE_CURVE('',#301,#300,#186,.T.);
#361=EDGE_CURVE('',#299,#301,#187,.T.);
#362=EDGE_CURVE('',#299,#302,#188,.T.);
#363=EDGE_CURVE('',#303,#301,#189,.T.);
#364=EDGE_CURVE('',#302,#303,#190,.T.);
#365=EDGE_CURVE('',#302,#304,#191,.T.);
#366=EDGE_CURVE('',#305,#303,#192,.T.);
#367=EDGE_CURVE('',#304,#305,#193,.T.);
#368=EDGE_CURVE('',#298,#304,#194,.T.);
#369=EDGE_CURVE('',#300,#305,#195,.T.);
#370=EDGE_CURVE('',#306,#306,#260,.T.);
#371=EDGE_CURVE('',#306,#307,#196,.T.);
#372=EDGE_CURVE('',#307,#307,#261,.T.);
#373=EDGE_CURVE('',#308,#308,#262,.T.);
#374=EDGE_CURVE('',#308,#309,#197,.T.);
#375=EDGE_CURVE('',#309,#309,#263,.T.);
#376=EDGE_CURVE('',#310,#310,#264,.T.);
#377=EDGE_CURVE('',#310,#311,#198,.T.);
#378=EDGE_CURVE('',#311,#311,#265,.T.);
#379=EDGE_CURVE('',#312,#312,#266,.T.);
#380=EDGE_CURVE('',#312,#313,#199,.T.);
#381=EDGE_CURVE('',#313,#313,#267,.T.);
#382=EDGE_CURVE('',#314,#314,#268,.T.);
#383=EDGE_CURVE('',#314,#315,#200,.T.);
#384=EDGE_CURVE('',#315,#315,#269,.T.);
#385=ORIENTED_EDGE('',*,*,#316,.F.);
#386=ORIENTED_EDGE('',*,*,#317,.T.);
#387=ORIENTED_EDGE('',*,*,#318,.T.);
#388=ORIENTED_EDGE('',*,*,#317,.F.);
#389=ORIENTED_EDGE('',*,*,#319,.T.);
#390=ORIENTED_EDGE('',*,*,#320,.T.);
#391=ORIENTED_EDGE('',*,*,#321,.F.);
#392=ORIENTED_EDGE('',*,*,#322,.F.);
#393=ORIENTED_EDGE('',*,*,#323,.T.);
#394=ORIENTED_EDGE('',*,*,#322,.T.);
#395=ORIENTED_EDGE('',*,*,#324,.F.);
#396=ORIENTED_EDGE('',*,*,#325,.F.);
#397=ORIENTED_EDGE('',*,*,#326,.T.);
#398=ORIENTED_EDGE('',*,*,#325,.T.);
#399=ORIENTED_EDGE('',*,*,#327,.F.);
#400=ORIENTED_EDGE('',*,*,#320,.F.);
#401=ORIENTED_EDGE('',*,*,#328,.F.);
#402=ORIENTED_EDGE('',*,*,#329,.T.);
#403=ORIENTED_EDGE('',*,*,#330,.T.);
#404=ORIENTED_EDGE('',*,*,#329,.F.);
#405=ORIENTED_EDGE('',*,*,#331,.T.);
#406=ORIENTED_EDGE('',*,*,#332,.T.);
#407=ORIENTED_EDGE('',*,*,#333,.F.);
#408=ORIENTED_EDGE('',*,*,#334,.F.);
#409=ORIENTED_EDGE('',*,*,#335,.T.);
#410=ORIENTED_EDGE('',*,*,#334,.T.);
#411=ORIENTED_EDGE('',*,*,#336,.F.);
#412=ORIENTED_EDGE('',*,*,#337,.F.);
#413=ORIENTED_EDGE('',*,*,#338,.T.);
#414=ORIENTED_EDGE('',*,*,#337,.T.);
#415=ORIENTED_EDGE('',*,*,#339,.F.);
#416=ORIENTED_EDGE('',*,*,#332,.F.);
#417=ORIENTED_EDGE('',*,*,#340,.F.);
#418=ORIENTED_EDGE('',*,*,#341,.T.);
#419=ORIENTED_EDGE('',*,*,#342,.T.);
#420=ORIENTED_EDGE('',*,*,#341,.F.);
#421=ORIENTED_EDGE('',*,*,#343,.F.);
#422=ORIENTED_EDGE('',*,*,#344,.T.);
#423=ORIENTED_EDGE('',*,*,#345,.T.);
#424=ORIENTED_EDGE('',*,*,#344,.F.);
#425=ORIENTED_EDGE('',*,*,#346,.T.);
#426=ORIENTED_EDGE('',*,*,#347,.T.);
#427=ORIENTED_EDGE('',*,*,#348,.F.);
#428=ORIENTED_EDGE('',*,*,#349,.F.);
#429=ORIENTED_EDGE('',*,*,#350,.T.);
#430=ORIENTED_EDGE('',*,*,#349,.T.);
#431=ORIENTED_EDGE('',*,*,#351,.F.);
#432=ORIENTED_EDGE('',*,*,#352,.F.);
#433=ORIENTED_EDGE('',*,*,#353,.T.);
#434=ORIENTED_EDGE('',*,*,#352,.T.);
#435=ORIENTED_EDGE('',*,*,#354,.F.);
#436=ORIENTED_EDGE('',*,*,#347,.F.);
#437=ORIENTED_EDGE('',*,*,#355,.F.);
#438=ORIENTED_EDGE('',*,*,#356,.T.);
#439=ORIENTED_EDGE('',*,*,#357,.T.);
#440=ORIENTED_EDGE('',*,*,#356,.F.);
#441=ORIENTED_EDGE('',*,*,#358,.F.);
#442=ORIENTED_EDGE('',*,*,#359,.T.);
#443=ORIENTED_EDGE('',*,*,#360,.F.);
#444=ORIENTED_EDGE('',*,*,#361,.F.);
#445=ORIENTED_EDGE('',*,*,#362,.F.);
#446=ORIENTED_EDGE('',*,*,#361,.T.);
#447=ORIENTED_EDGE('',*,*,#363,.F.);
#448=ORIENTED_EDGE('',*,*,#364,.F.);
#449=ORIENTED_EDGE('',*,*,#365,.F.);
#450=ORIENTED_EDGE('',*,*,#364,.T.);
#451=ORIENTED_EDGE('',*,*,#366,.F.);
#452=ORIENTED_EDGE('',*,*,#367,.F.);
#453=ORIENTED_EDGE('',*,*,#368,.T.);
#454=ORIENTED_EDGE('',*,*,#367,.T.);
#455=ORIENTED_EDGE('',*,*,#369,.F.);
#456=ORIENTED_EDGE('',*,*,#359,.F.);
#457=ORIENTED_EDGE('',*,*,#369,.T.);
#458=ORIENTED_EDGE('',*,*,#366,.T.);
#459=ORIENTED_EDGE('',*,*,#363,.T.);
#460=ORIENTED_EDGE('',*,*,#360,.T.);
#461=ORIENTED_EDGE('',*,*,#355,.T.);
#462=ORIENTED_EDGE('',*,*,#354,.T.);
#463=ORIENTED_EDGE('',*,*,#351,.T.);
#464=ORIENTED_EDGE('',*,*,#348,.T.);
#465=ORIENTED_EDGE('',*,*,#343,.T.);
#466=ORIENTED_EDGE('',*,*,#340,.T.);
#467=ORIENTED_EDGE('',*,*,#339,.T.);
#468=ORIENTED_EDGE('',*,*,#336,.T.);
#469=ORIENTED_EDGE('',*,*,#333,.T.);
#470=ORIENTED_EDGE('',*,*,#328,.T.);
#471=ORIENTED_EDGE('',*,*,#327,.T.);
#472=ORIENTED_EDGE('',*,*,#324,.T.);
#473=ORIENTED_EDGE('',*,*,#321,.T.);
#474=ORIENTED_EDGE('',*,*,#316,.T.);
#475=ORIENTED_EDGE('',*,*,#368,.F.);
#476=ORIENTED_EDGE('',*,*,#358,.T.);
#477=ORIENTED_EDGE('',*,*,#362,.T.);
#478=ORIENTED_EDGE('',*,*,#365,.T.);
#479=ORIENTED_EDGE('',*,*,#357,.F.);
#480=ORIENTED_EDGE('',*,*,#353,.F.);
#481=ORIENTED_EDGE('',*,*,#346,.F.);
#482=ORIENTED_EDGE('',*,*,#350,.F.);
#483=ORIENTED_EDGE('',*,*,#345,.F.);
#484=ORIENTED_EDGE('',*,*,#342,.F.);
#485=ORIENTED_EDGE('',*,*,#338,.F.);
#486=ORIENTED_EDGE('',*,*,#331,.F.);
#487=ORIENTED_EDGE('',*,*,#335,.F.);
#488=ORIENTED_EDGE('',*,*,#330,.F.);
#489=ORIENTED_EDGE('',*,*,#326,.F.);
#490=ORIENTED_EDGE('',*,*,#319,.F.);
#491=ORIENTED_EDGE('',*,*,#323,.F.);
#492=ORIENTED_EDGE('',*,*,#318,.F.);
#493=ORIENTED_EDGE('',*,*,#370,.F.);
#494=ORIENTED_EDGE('',*,*,#371,.T.);
#495=ORIENTED_EDGE('',*,*,#372,.T.);
#496=ORIENTED_EDGE('',*,*,#371,.F.);
#497=ORIENTED_EDGE('',*,*,#370,.T.);
#498=ORIENTED_EDGE('',*,*,#372,.F.);
#499=ORIENTED_EDGE('',*,*,#373,.F.);
#500=ORIENTED_EDGE('',*,*,#374,.T.);
#501=ORIENTED_EDGE('',*,*,#375,.T.);
#502=ORIENTED_EDGE('',*,*,#374,.F.);
#503=ORIENTED_EDGE('',*,*,#373,.T.);
#504=ORIENTED_EDGE('',*,*,#375,.F.);
#505=ORIENTED_EDGE('',*,*,#376,.F.);
#506=ORIENTED_EDGE('',*,*,#377,.T.);
#507=ORIENTED_EDGE('',*,*,#378,.T.);
#508=ORIENTED_EDGE('',*,*,#377,.F.);
#509=ORIENTED_EDGE('',*,*,#376,.T.);
#510=ORIENTED_EDGE('',*,*,#378,.F.);
#511=ORIENTED_EDGE('',*,*,#379,.F.);
#512=ORIENTED_EDGE('',*,*,#380,.T.);
#513=ORIENTED_EDGE('',*,*,#381,.T.);
#514=ORIENTED_EDGE('',*,*,#380,.F.);
#515=ORIENTED_EDGE('',*,*,#379,.T.);
#516=ORIENTED_EDGE('',*,*,#381,.F.);
#517=ORIENTED_EDGE('',*,*,#382,.F.);
#518=ORIENTED_EDGE('',*,*,#383,.T.);
#519=ORIENTED_EDGE('',*,*,#384,.T.);
#520=ORIENTED_EDGE('',*,*,#383,.F.);
#521=ORIENTED_EDGE('',*,*,#382,.T.);
#522=ORIENTED_EDGE('',*,*,#384,.F.);
#523=CYLINDRICAL_SURFACE('',#587,0.0905511811023624);
#524=CYLINDRICAL_SURFACE('',#593,0.0905511811023624);
#525=CYLINDRICAL_SURFACE('',#599,0.0917322834645657);
#526=CYLINDRICAL_SURFACE('',#602,0.0917322834645657);
#527=CYLINDRICAL_SURFACE('',#608,0.0917322834645669);
#528=CYLINDRICAL_SURFACE('',#617,0.0905511811023624);
#529=CYLINDRICAL_SURFACE('',#622,0.0917322834645657);
#530=CYLINDRICAL_SURFACE('',#627,0.0905511811023624);
#531=CYLINDRICAL_SURFACE('',#632,0.0917322834645669);
#532=CYLINDRICAL_SURFACE('',#637,0.0917322834645657);
#533=ADVANCED_FACE('',(#66),#523,.F.);
#534=ADVANCED_FACE('',(#67),#41,.T.);
#535=ADVANCED_FACE('',(#68),#42,.T.);
#536=ADVANCED_FACE('',(#69),#43,.T.);
#537=ADVANCED_FACE('',(#70),#524,.F.);
#538=ADVANCED_FACE('',(#71),#44,.T.);
#539=ADVANCED_FACE('',(#72),#45,.T.);
#540=ADVANCED_FACE('',(#73),#46,.T.);
#541=ADVANCED_FACE('',(#74),#525,.F.);
#542=ADVANCED_FACE('',(#75),#526,.F.);
#543=ADVANCED_FACE('',(#76),#47,.T.);
#544=ADVANCED_FACE('',(#77),#48,.T.);
#545=ADVANCED_FACE('',(#78),#49,.T.);
#546=ADVANCED_FACE('',(#79),#527,.F.);
#547=ADVANCED_FACE('',(#80),#50,.T.);
#548=ADVANCED_FACE('',(#81),#51,.T.);
#549=ADVANCED_FACE('',(#82),#52,.T.);
#550=ADVANCED_FACE('',(#83),#53,.T.);
#551=ADVANCED_FACE('',(#84,#25,#26,#27,#28,#29,#30,#31,#32),#54,.T.);
#552=ADVANCED_FACE('',(#85,#33,#34,#35,#36,#37,#38,#39,#40),#55,.F.);
#553=ADVANCED_FACE('',(#86),#528,.T.);
#554=ADVANCED_FACE('',(#87),#56,.T.);
#555=ADVANCED_FACE('',(#88),#57,.F.);
#556=ADVANCED_FACE('',(#89),#529,.T.);
#557=ADVANCED_FACE('',(#90),#58,.T.);
#558=ADVANCED_FACE('',(#91),#59,.F.);
#559=ADVANCED_FACE('',(#92),#530,.T.);
#560=ADVANCED_FACE('',(#93),#60,.T.);
#561=ADVANCED_FACE('',(#94),#61,.F.);
#562=ADVANCED_FACE('',(#95),#531,.T.);
#563=ADVANCED_FACE('',(#96),#62,.T.);
#564=ADVANCED_FACE('',(#97),#63,.F.);
#565=ADVANCED_FACE('',(#98),#532,.T.);
#566=ADVANCED_FACE('',(#99),#64,.T.);
#567=ADVANCED_FACE('',(#100),#65,.F.);
#568=CLOSED_SHELL('',(#533,#534,#535,#536,#537,#538,#539,#540,#541,#542,
#543,#544,#545,#546,#547,#548,#549,#550,#551,#552));
#569=CLOSED_SHELL('',(#553,#554,#555));
#570=CLOSED_SHELL('',(#556,#557,#558));
#571=CLOSED_SHELL('',(#559,#560,#561));
#572=CLOSED_SHELL('',(#562,#563,#564));
#573=CLOSED_SHELL('',(#565,#566,#567));
#574=DERIVED_UNIT_ELEMENT(#576,1.);
#575=DERIVED_UNIT_ELEMENT(#961,-3.);
#576=(
MASS_UNIT()
NAMED_UNIT(*)
SI_UNIT(.KILO.,.GRAM.)
);
#577=DERIVED_UNIT((#574,#575));
#578=MEASURE_REPRESENTATION_ITEM('density measure',
POSITIVE_RATIO_MEASURE(7850.),#577);
#579=PROPERTY_DEFINITION_REPRESENTATION(#584,#581);
#580=PROPERTY_DEFINITION_REPRESENTATION(#585,#582);
#581=REPRESENTATION('material name',(#583),#956);
#582=REPRESENTATION('density',(#578),#956);
#583=DESCRIPTIVE_REPRESENTATION_ITEM('Steel','Steel');
#584=PROPERTY_DEFINITION('material property','material name',#969);
#585=PROPERTY_DEFINITION('material property','density of part',#969);
#586=AXIS2_PLACEMENT_3D('',#803,#642,#643);
#587=AXIS2_PLACEMENT_3D('',#804,#644,#645);
#588=AXIS2_PLACEMENT_3D('',#806,#646,#647);
#589=AXIS2_PLACEMENT_3D('',#809,#649,#650);
#590=AXIS2_PLACEMENT_3D('',#810,#651,#652);
#591=AXIS2_PLACEMENT_3D('',#819,#657,#658);
#592=AXIS2_PLACEMENT_3D('',#825,#662,#663);
#593=AXIS2_PLACEMENT_3D('',#828,#666,#667);
#594=AXIS2_PLACEMENT_3D('',#830,#668,#669);
#595=AXIS2_PLACEMENT_3D('',#833,#671,#672);
#596=AXIS2_PLACEMENT_3D('',#834,#673,#674);
#597=AXIS2_PLACEMENT_3D('',#843,#679,#680);
#598=AXIS2_PLACEMENT_3D('',#849,#684,#685);
#599=AXIS2_PLACEMENT_3D('',#852,#688,#689);
#600=AXIS2_PLACEMENT_3D('',#854,#690,#691);
#601=AXIS2_PLACEMENT_3D('',#857,#693,#694);
#602=AXIS2_PLACEMENT_3D('',#858,#695,#696);
#603=AXIS2_PLACEMENT_3D('',#860,#697,#698);
#604=AXIS2_PLACEMENT_3D('',#863,#700,#701);
#605=AXIS2_PLACEMENT_3D('',#864,#702,#703);
#606=AXIS2_PLACEMENT_3D('',#873,#708,#709);
#607=AXIS2_PLACEMENT_3D('',#879,#713,#714);
#608=AXIS2_PLACEMENT_3D('',#882,#717,#718);
#609=AXIS2_PLACEMENT_3D('',#884,#719,#720);
#610=AXIS2_PLACEMENT_3D('',#887,#722,#723);
#611=AXIS2_PLACEMENT_3D('',#888,#724,#725);
#612=AXIS2_PLACEMENT_3D('',#897,#730,#731);
#613=AXIS2_PLACEMENT_3D('',#903,#735,#736);
#614=AXIS2_PLACEMENT_3D('',#909,#740,#741);
#615=AXIS2_PLACEMENT_3D('',#912,#744,#745);
#616=AXIS2_PLACEMENT_3D('',#913,#746,#747);
#617=AXIS2_PLACEMENT_3D('',#914,#748,#749);
#618=AXIS2_PLACEMENT_3D('',#916,#750,#751);
#619=AXIS2_PLACEMENT_3D('',#919,#753,#754);
#620=AXIS2_PLACEMENT_3D('',#920,#755,#756);
#621=AXIS2_PLACEMENT_3D('',#921,#757,#758);
#622=AXIS2_PLACEMENT_3D('',#922,#759,#760);
#623=AXIS2_PLACEMENT_3D('',#924,#761,#762);
#624=AXIS2_PLACEMENT_3D('',#927,#764,#765);
#625=AXIS2_PLACEMENT_3D('',#928,#766,#767);
#626=AXIS2_PLACEMENT_3D('',#929,#768,#769);
#627=AXIS2_PLACEMENT_3D('',#930,#770,#771);
#628=AXIS2_PLACEMENT_3D('',#932,#772,#773);
#629=AXIS2_PLACEMENT_3D('',#935,#775,#776);
#630=AXIS2_PLACEMENT_3D('',#936,#777,#778);
#631=AXIS2_PLACEMENT_3D('',#937,#779,#780);
#632=AXIS2_PLACEMENT_3D('',#938,#781,#782);
#633=AXIS2_PLACEMENT_3D('',#940,#783,#784);
#634=AXIS2_PLACEMENT_3D('',#943,#786,#787);
#635=AXIS2_PLACEMENT_3D('',#944,#788,#789);
#636=AXIS2_PLACEMENT_3D('',#945,#790,#791);
#637=AXIS2_PLACEMENT_3D('',#946,#792,#793);
#638=AXIS2_PLACEMENT_3D('',#948,#794,#795);
#639=AXIS2_PLACEMENT_3D('',#951,#797,#798);
#640=AXIS2_PLACEMENT_3D('',#952,#799,#800);
#641=AXIS2_PLACEMENT_3D('',#953,#801,#802);
#642=DIRECTION('axis',(0.,0.,1.));
#643=DIRECTION('refdir',(1.,0.,0.));
#644=DIRECTION('center_axis',(0.,0.,1.));
#645=DIRECTION('ref_axis',(1.,0.,0.));
#646=DIRECTION('center_axis',(0.,0.,-1.));
#647=DIRECTION('ref_axis',(1.,0.,0.));
#648=DIRECTION('',(0.,0.,-1.));
#649=DIRECTION('center_axis',(0.,0.,-1.));
#650=DIRECTION('ref_axis',(1.,0.,0.));
#651=DIRECTION('center_axis',(-0.6,0.8,0.));
#652=DIRECTION('ref_axis',(-0.8,-0.6,0.));
#653=DIRECTION('',(-0.8,-0.6,0.));
#654=DIRECTION('',(0.,0.,1.));
#655=DIRECTION('',(-0.8,-0.6,0.));
#656=DIRECTION('',(0.,0.,1.));
#657=DIRECTION('center_axis',(0.,-1.,0.));
#658=DIRECTION('ref_axis',(1.,0.,0.));
#659=DIRECTION('',(1.,0.,0.));
#660=DIRECTION('',(1.,0.,0.));
#661=DIRECTION('',(0.,0.,1.));
#662=DIRECTION('center_axis',(0.832050294337844,0.554700196225229,0.));
#663=DIRECTION('ref_axis',(-0.554700196225229,0.832050294337844,0.));
#664=DIRECTION('',(-0.554700196225229,0.832050294337844,0.));
#665=DIRECTION('',(-0.554700196225229,0.832050294337844,0.));
#666=DIRECTION('center_axis',(0.,0.,1.));
#667=DIRECTION('ref_axis',(1.,0.,0.));
#668=DIRECTION('center_axis',(0.,0.,-1.));
#669=DIRECTION('ref_axis',(1.,0.,0.));
#670=DIRECTION('',(0.,0.,-1.));
#671=DIRECTION('center_axis',(0.,0.,-1.));
#672=DIRECTION('ref_axis',(1.,0.,0.));
#673=DIRECTION('center_axis',(0.,-1.,0.));
#674=DIRECTION('ref_axis',(1.,0.,0.));
#675=DIRECTION('',(1.,0.,0.));
#676=DIRECTION('',(0.,0.,1.));
#677=DIRECTION('',(1.,0.,0.));
#678=DIRECTION('',(0.,0.,1.));
#679=DIRECTION('center_axis',(0.6,0.8,0.));
#680=DIRECTION('ref_axis',(-0.8,0.6,0.));
#681=DIRECTION('',(-0.8,0.6,0.));
#682=DIRECTION('',(-0.8,0.6,0.));
#683=DIRECTION('',(0.,0.,1.));
#684=DIRECTION('center_axis',(-0.832050294337844,0.554700196225229,0.));
#685=DIRECTION('ref_axis',(-0.554700196225229,-0.832050294337844,0.));
#686=DIRECTION('',(-0.554700196225229,-0.832050294337844,0.));
#687=DIRECTION('',(-0.554700196225229,-0.832050294337844,0.));
#688=DIRECTION('center_axis',(0.,0.,1.));
#689=DIRECTION('ref_axis',(1.,0.,0.));
#690=DIRECTION('center_axis',(0.,0.,-1.));
#691=DIRECTION('ref_axis',(1.,0.,0.));
#692=DIRECTION('',(0.,0.,-1.));
#693=DIRECTION('center_axis',(0.,0.,-1.));
#694=DIRECTION('ref_axis',(1.,0.,0.));
#695=DIRECTION('center_axis',(0.,0.,1.));
#696=DIRECTION('ref_axis',(1.,0.,0.));
#697=DIRECTION('center_axis',(0.,0.,-1.));
#698=DIRECTION('ref_axis',(1.,0.,0.));
#699=DIRECTION('',(0.,0.,-1.));
#700=DIRECTION('center_axis',(0.,0.,-1.));
#701=DIRECTION('ref_axis',(1.,0.,0.));
#702=DIRECTION('center_axis',(3.37567811541433E-17,1.,0.));
#703=DIRECTION('ref_axis',(-1.,3.37567811541433E-17,0.));
#704=DIRECTION('',(-1.,3.37567811541433E-17,0.));
#705=DIRECTION('',(0.,0.,1.));
#706=DIRECTION('',(-1.,3.37567811541433E-17,0.));
#707=DIRECTION('',(0.,0.,1.));
#708=DIRECTION('center_axis',(-0.832050294337844,-0.554700196225229,0.));
#709=DIRECTION('ref_axis',(0.554700196225229,-0.832050294337844,0.));
#710=DIRECTION('',(0.554700196225229,-0.832050294337844,0.));
#711=DIRECTION('',(0.554700196225229,-0.832050294337844,0.));
#712=DIRECTION('',(0.,0.,1.));
#713=DIRECTION('center_axis',(0.832050294337844,-0.554700196225229,0.));
#714=DIRECTION('ref_axis',(0.554700196225229,0.832050294337844,0.));
#715=DIRECTION('',(0.554700196225229,0.832050294337844,0.));
#716=DIRECTION('',(0.554700196225229,0.832050294337844,0.));
#717=DIRECTION('center_axis',(0.,0.,1.));
#718=DIRECTION('ref_axis',(1.,0.,0.));
#719=DIRECTION('center_axis',(0.,0.,-1.));
#720=DIRECTION('ref_axis',(1.,0.,0.));
#721=DIRECTION('',(0.,0.,-1.));
#722=DIRECTION('center_axis',(0.,0.,-1.));
#723=DIRECTION('ref_axis',(1.,0.,0.));
#724=DIRECTION('center_axis',(0.,-1.,0.));
#725=DIRECTION('ref_axis',(1.,0.,0.));
#726=DIRECTION('',(-1.,0.,0.));
#727=DIRECTION('',(0.,0.,1.));
#728=DIRECTION('',(1.,0.,0.));
#729=DIRECTION('',(0.,0.,1.));
#730=DIRECTION('center_axis',(-0.6,-0.8,0.));
#731=DIRECTION('ref_axis',(0.8,-0.6,0.));
#732=DIRECTION('',(-0.8,0.6,0.));
#733=DIRECTION('',(0.8,-0.6,0.));
#734=DIRECTION('',(0.,0.,1.));
#735=DIRECTION('center_axis',(0.,1.,0.));
#736=DIRECTION('ref_axis',(-1.,0.,0.));
#737=DIRECTION('',(1.,0.,0.));
#738=DIRECTION('',(-1.,0.,0.));
#739=DIRECTION('',(0.,0.,1.));
#740=DIRECTION('center_axis',(0.6,-0.8,0.));
#741=DIRECTION('ref_axis',(0.8,0.6,0.));
#742=DIRECTION('',(0.8,0.6,0.));
#743=DIRECTION('',(0.8,0.6,0.));
#744=DIRECTION('center_axis',(0.,0.,1.));
#745=DIRECTION('ref_axis',(1.,0.,0.));
#746=DIRECTION('center_axis',(0.,0.,1.));
#747=DIRECTION('ref_axis',(1.,0.,0.));
#748=DIRECTION('center_axis',(0.,0.,1.));
#749=DIRECTION('ref_axis',(1.,0.,0.));
#750=DIRECTION('center_axis',(0.,0.,1.));
#751=DIRECTION('ref_axis',(1.,0.,0.));
#752=DIRECTION('',(0.,0.,-1.));
#753=DIRECTION('center_axis',(0.,0.,1.));
#754=DIRECTION('ref_axis',(1.,0.,0.));
#755=DIRECTION('center_axis',(0.,0.,1.));
#756=DIRECTION('ref_axis',(1.,0.,0.));
#757=DIRECTION('center_axis',(0.,0.,1.));
#758=DIRECTION('ref_axis',(1.,0.,0.));
#759=DIRECTION('center_axis',(0.,0.,1.));
#760=DIRECTION('ref_axis',(1.,0.,0.));
#761=DIRECTION('center_axis',(0.,0.,1.));
#762=DIRECTION('ref_axis',(1.,0.,0.));
#763=DIRECTION('',(0.,0.,-1.));
#764=DIRECTION('center_axis',(0.,0.,1.));
#765=DIRECTION('ref_axis',(1.,0.,0.));
#766=DIRECTION('center_axis',(0.,0.,1.));
#767=DIRECTION('ref_axis',(1.,0.,0.));
#768=DIRECTION('center_axis',(0.,0.,1.));
#769=DIRECTION('ref_axis',(1.,0.,0.));
#770=DIRECTION('center_axis',(0.,0.,1.));
#771=DIRECTION('ref_axis',(1.,0.,0.));
#772=DIRECTION('center_axis',(0.,0.,1.));
#773=DIRECTION('ref_axis',(1.,0.,0.));
#774=DIRECTION('',(0.,0.,-1.));
#775=DIRECTION('center_axis',(0.,0.,1.));
#776=DIRECTION('ref_axis',(1.,0.,0.));
#777=DIRECTION('center_axis',(0.,0.,1.));
#778=DIRECTION('ref_axis',(1.,0.,0.));
#779=DIRECTION('center_axis',(0.,0.,1.));
#780=DIRECTION('ref_axis',(1.,0.,0.));
#781=DIRECTION('center_axis',(0.,0.,1.));
#782=DIRECTION('ref_axis',(1.,0.,0.));
#783=DIRECTION('center_axis',(0.,0.,1.));
#784=DIRECTION('ref_axis',(1.,0.,0.));
#785=DIRECTION('',(0.,0.,-1.));
#786=DIRECTION('center_axis',(0.,0.,1.));
#787=DIRECTION('ref_axis',(1.,0.,0.));
#788=DIRECTION('center_axis',(0.,0.,1.));
#789=DIRECTION('ref_axis',(1.,0.,0.));
#790=DIRECTION('center_axis',(0.,0.,1.));
#791=DIRECTION('ref_axis',(1.,0.,0.));
#792=DIRECTION('center_axis',(0.,0.,1.));
#793=DIRECTION('ref_axis',(1.,0.,0.));
#794=DIRECTION('center_axis',(0.,0.,1.));
#795=DIRECTION('ref_axis',(1.,0.,0.));
#796=DIRECTION('',(0.,0.,-1.));
#797=DIRECTION('center_axis',(0.,0.,1.));
#798=DIRECTION('ref_axis',(1.,0.,0.));
#799=DIRECTION('center_axis',(0.,0.,1.));
#800=DIRECTION('ref_axis',(1.,0.,0.));
#801=DIRECTION('center_axis',(0.,0.,1.));
#802=DIRECTION('ref_axis',(1.,0.,0.));
#803=CARTESIAN_POINT('',(0.,0.,0.));
#804=CARTESIAN_POINT('Origin',(-7.8740157480315,0.,0.));
#805=CARTESIAN_POINT('',(-7.96456692913386,0.,0.47244094488189));
#806=CARTESIAN_POINT('Origin',(-7.8740157480315,0.,0.47244094488189));
#807=CARTESIAN_POINT('',(-7.96456692913386,-1.1089321409602E-17,0.));
#808=CARTESIAN_POINT('',(-7.96456692913386,-1.1089321409602E-17,0.));
#809=CARTESIAN_POINT('Origin',(-7.8740157480315,0.,0.));
#810=CARTESIAN_POINT('Origin',(22.6771653543307,11.496062992126,0.));
#811=CARTESIAN_POINT('',(22.6771653543307,11.496062992126,0.));
#812=CARTESIAN_POINT('',(7.95139466494936,0.451734975089973,0.));
#813=CARTESIAN_POINT('',(7.68503937007874,0.251968503937008,0.));
#814=CARTESIAN_POINT('',(7.95139466494936,0.451734975089973,0.47244094488189));
#815=CARTESIAN_POINT('',(7.95139466494936,0.451734975089973,0.));
#816=CARTESIAN_POINT('',(22.6771653543307,11.496062992126,0.47244094488189));
#817=CARTESIAN_POINT('',(7.68503937007874,0.251968503937008,0.47244094488189));
#818=CARTESIAN_POINT('',(22.6771653543307,11.496062992126,0.));
#819=CARTESIAN_POINT('Origin',(0.588509320258686,11.496062992126,0.));
#820=CARTESIAN_POINT('',(0.588509320258686,11.496062992126,0.));
#821=CARTESIAN_POINT('',(0.,11.496062992126,0.));
#822=CARTESIAN_POINT('',(0.588509320258686,11.496062992126,0.47244094488189));
#823=CARTESIAN_POINT('',(0.,11.496062992126,0.47244094488189));
#824=CARTESIAN_POINT('',(0.588509320258686,11.496062992126,0.));
#825=CARTESIAN_POINT('Origin',(7.95139466494936,0.451734975089972,0.));
#826=CARTESIAN_POINT('',(0.,12.378826972514,0.));
#827=CARTESIAN_POINT('',(0.,12.378826972514,0.47244094488189));
#828=CARTESIAN_POINT('Origin',(7.8740157480315,0.,0.));
#829=CARTESIAN_POINT('',(7.78346456692913,0.,0.47244094488189));
#830=CARTESIAN_POINT('Origin',(7.8740157480315,0.,0.47244094488189));
#831=CARTESIAN_POINT('',(7.78346456692913,-1.1089321409602E-17,0.));
#832=CARTESIAN_POINT('',(7.78346456692913,-1.1089321409602E-17,0.));
#833=CARTESIAN_POINT('Origin',(7.8740157480315,0.,0.));
#834=CARTESIAN_POINT('Origin',(-22.6771653543307,11.496062992126,0.));
#835=CARTESIAN_POINT('',(-22.6771653543307,11.496062992126,0.));
#836=CARTESIAN_POINT('',(-0.588509320258685,11.496062992126,0.));
#837=CARTESIAN_POINT('',(-22.6771653543307,11.496062992126,0.));
#838=CARTESIAN_POINT('',(-0.588509320258685,11.496062992126,0.47244094488189));
#839=CARTESIAN_POINT('',(-0.588509320258685,11.496062992126,0.));
#840=CARTESIAN_POINT('',(-22.6771653543307,11.496062992126,0.47244094488189));
#841=CARTESIAN_POINT('',(-22.6771653543307,11.496062992126,0.47244094488189));
#842=CARTESIAN_POINT('',(-22.6771653543307,11.496062992126,0.));
#843=CARTESIAN_POINT('Origin',(-7.95139466494936,0.451734975089973,0.));
#844=CARTESIAN_POINT('',(-7.95139466494936,0.451734975089973,0.));
#845=CARTESIAN_POINT('',(-7.68503937007874,0.251968503937008,0.));
#846=CARTESIAN_POINT('',(-7.95139466494936,0.451734975089973,0.47244094488189));
#847=CARTESIAN_POINT('',(-7.68503937007874,0.251968503937008,0.47244094488189));
#848=CARTESIAN_POINT('',(-7.95139466494936,0.451734975089973,0.));
#849=CARTESIAN_POINT('Origin',(-0.588509320258685,11.496062992126,0.));
#850=CARTESIAN_POINT('',(-8.13607883286231,0.174708723220545,0.));
#851=CARTESIAN_POINT('',(-8.13607883286231,0.174708723220545,0.47244094488189));
#852=CARTESIAN_POINT('Origin',(23.6220472440945,11.8110236220472,0.));
#853=CARTESIAN_POINT('',(23.5303149606299,11.8110236220472,0.47244094488189));
#854=CARTESIAN_POINT('Origin',(23.6220472440945,11.8110236220472,0.47244094488189));
#855=CARTESIAN_POINT('',(23.5303149606299,11.8110236220472,0.));
#856=CARTESIAN_POINT('',(23.5303149606299,11.8110236220472,0.));
#857=CARTESIAN_POINT('Origin',(23.6220472440945,11.8110236220472,0.));
#858=CARTESIAN_POINT('Origin',(-23.6220472440945,11.8110236220472,0.));
#859=CARTESIAN_POINT('',(-23.713779527559,11.8110236220472,0.47244094488189));
#860=CARTESIAN_POINT('Origin',(-23.6220472440945,11.8110236220472,0.47244094488189));
#861=CARTESIAN_POINT('',(-23.7137795275591,11.8110236220472,0.));
#862=CARTESIAN_POINT('',(-23.7137795275591,11.8110236220472,0.));
#863=CARTESIAN_POINT('Origin',(-23.6220472440945,11.8110236220472,0.));
#864=CARTESIAN_POINT('Origin',(7.28550642777281,0.31496062992126,0.));
#865=CARTESIAN_POINT('',(7.28550642777281,0.314960629921259,0.));
#866=CARTESIAN_POINT('',(-7.28550642777281,0.31496062992126,0.));
#867=CARTESIAN_POINT('',(0.,0.31496062992126,0.));
#868=CARTESIAN_POINT('',(-7.28550642777281,0.31496062992126,0.47244094488189));
#869=CARTESIAN_POINT('',(-7.28550642777281,0.31496062992126,0.));
#870=CARTESIAN_POINT('',(7.28550642777281,0.314960629921259,0.47244094488189));
#871=CARTESIAN_POINT('',(0.,0.31496062992126,0.47244094488189));
#872=CARTESIAN_POINT('',(7.28550642777281,0.314960629921259,0.));
#873=CARTESIAN_POINT('Origin',(-1.3987061727561E-15,11.2432202715805,0.));
#874=CARTESIAN_POINT('',(-1.3987061727561E-15,11.2432202715805,0.));
#875=CARTESIAN_POINT('',(-1.3987061727561E-15,11.2432202715805,0.));
#876=CARTESIAN_POINT('',(-1.3987061727561E-15,11.2432202715805,0.47244094488189));
#877=CARTESIAN_POINT('',(-1.3987061727561E-15,11.2432202715805,0.47244094488189));
#878=CARTESIAN_POINT('',(-1.3987061727561E-15,11.2432202715805,0.));
#879=CARTESIAN_POINT('Origin',(-7.28550642777281,0.31496062992126,0.));
#880=CARTESIAN_POINT('',(-7.61195266320068,-0.174708723220545,0.));
#881=CARTESIAN_POINT('',(-7.61195266320068,-0.174708723220545,0.47244094488189));
#882=CARTESIAN_POINT('Origin',(0.,11.8110236220472,0.));
#883=CARTESIAN_POINT('',(-0.0917322834645671,11.8110236220472,0.47244094488189));
#884=CARTESIAN_POINT('Origin',(0.,11.8110236220472,0.47244094488189));
#885=CARTESIAN_POINT('',(-0.0917322834645669,11.8110236220472,0.));
#886=CARTESIAN_POINT('',(-0.0917322834645669,11.8110236220472,0.));
#887=CARTESIAN_POINT('Origin',(0.,11.8110236220472,0.));
#888=CARTESIAN_POINT('Origin',(-7.97900262467191,-0.31496062992126,0.));
#889=CARTESIAN_POINT('',(7.97900262467191,-0.31496062992126,0.));
#890=CARTESIAN_POINT('',(-7.97900262467191,-0.31496062992126,0.));
#891=CARTESIAN_POINT('',(0.,-0.31496062992126,0.));
#892=CARTESIAN_POINT('',(7.97900262467191,-0.31496062992126,0.47244094488189));
#893=CARTESIAN_POINT('',(7.97900262467191,-0.31496062992126,0.));
#894=CARTESIAN_POINT('',(-7.97900262467191,-0.31496062992126,0.47244094488189));
#895=CARTESIAN_POINT('',(0.,-0.31496062992126,0.47244094488189));
#896=CARTESIAN_POINT('',(-7.97900262467191,-0.31496062992126,0.));
#897=CARTESIAN_POINT('Origin',(-24.5669291338583,12.1259842519685,0.));
#898=CARTESIAN_POINT('',(-24.5669291338583,12.1259842519685,0.));
#899=CARTESIAN_POINT('',(-8.06299212598425,-0.251968503937008,0.));
#900=CARTESIAN_POINT('',(-24.5669291338583,12.1259842519685,0.47244094488189));
#901=CARTESIAN_POINT('',(-8.06299212598425,-0.251968503937008,0.47244094488189));
#902=CARTESIAN_POINT('',(-24.5669291338583,12.1259842519685,0.));
#903=CARTESIAN_POINT('Origin',(24.5669291338583,12.1259842519685,0.));
#904=CARTESIAN_POINT('',(24.5669291338583,12.1259842519685,0.));
#905=CARTESIAN_POINT('',(0.,12.1259842519685,0.));
#906=CARTESIAN_POINT('',(24.5669291338583,12.1259842519685,0.47244094488189));
#907=CARTESIAN_POINT('',(0.,12.1259842519685,0.47244094488189));
#908=CARTESIAN_POINT('',(24.5669291338583,12.1259842519685,0.));
#909=CARTESIAN_POINT('Origin',(7.97900262467191,-0.31496062992126,0.));
#910=CARTESIAN_POINT('',(7.97900262467191,-0.31496062992126,0.));
#911=CARTESIAN_POINT('',(7.97900262467191,-0.31496062992126,0.47244094488189));
#912=CARTESIAN_POINT('Origin',(2.79741234551221E-15,5.90551181102362,0.47244094488189));
#913=CARTESIAN_POINT('Origin',(2.79741234551221E-15,5.90551181102362,0.));
#914=CARTESIAN_POINT('Origin',(-7.8740157480315,0.,0.));
#915=CARTESIAN_POINT('',(-7.96456692913386,-1.1089321409602E-17,0.47244094488189));
#916=CARTESIAN_POINT('Origin',(-7.8740157480315,0.,0.47244094488189));
#917=CARTESIAN_POINT('',(-7.96456692913386,-1.1089321409602E-17,0.));
#918=CARTESIAN_POINT('',(-7.96456692913386,-1.1089321409602E-17,0.));
#919=CARTESIAN_POINT('Origin',(-7.8740157480315,0.,0.));
#920=CARTESIAN_POINT('Origin',(-7.8740157480315,0.,0.47244094488189));
#921=CARTESIAN_POINT('Origin',(-7.8740157480315,0.,0.));
#922=CARTESIAN_POINT('Origin',(-23.6220472440945,11.8110236220472,0.));
#923=CARTESIAN_POINT('',(-23.7137795275591,11.8110236220472,0.47244094488189));
#924=CARTESIAN_POINT('Origin',(-23.6220472440945,11.8110236220472,0.47244094488189));
#925=CARTESIAN_POINT('',(-23.7137795275591,11.8110236220472,0.));
#926=CARTESIAN_POINT('',(-23.7137795275591,11.8110236220472,0.));
#927=CARTESIAN_POINT('Origin',(-23.6220472440945,11.8110236220472,0.));
#928=CARTESIAN_POINT('Origin',(-23.6220472440945,11.8110236220472,0.47244094488189));
#929=CARTESIAN_POINT('Origin',(-23.6220472440945,11.8110236220472,0.));
#930=CARTESIAN_POINT('Origin',(7.8740157480315,0.,0.));
#931=CARTESIAN_POINT('',(7.78346456692913,-1.1089321409602E-17,0.47244094488189));
#932=CARTESIAN_POINT('Origin',(7.8740157480315,0.,0.47244094488189));
#933=CARTESIAN_POINT('',(7.78346456692913,-1.1089321409602E-17,0.));
#934=CARTESIAN_POINT('',(7.78346456692913,-1.1089321409602E-17,0.));
#935=CARTESIAN_POINT('Origin',(7.8740157480315,0.,0.));
#936=CARTESIAN_POINT('Origin',(7.8740157480315,0.,0.47244094488189));
#937=CARTESIAN_POINT('Origin',(7.8740157480315,0.,0.));
#938=CARTESIAN_POINT('Origin',(0.,11.8110236220472,0.));
#939=CARTESIAN_POINT('',(-0.0917322834645669,11.8110236220472,0.47244094488189));
#940=CARTESIAN_POINT('Origin',(0.,11.8110236220472,0.47244094488189));
#941=CARTESIAN_POINT('',(-0.0917322834645669,11.8110236220472,0.));
#942=CARTESIAN_POINT('',(-0.0917322834645669,11.8110236220472,0.));
#943=CARTESIAN_POINT('Origin',(0.,11.8110236220472,0.));
#944=CARTESIAN_POINT('Origin',(0.,11.8110236220472,0.47244094488189));
#945=CARTESIAN_POINT('Origin',(0.,11.8110236220472,0.));
#946=CARTESIAN_POINT('Origin',(23.6220472440945,11.8110236220472,0.));
#947=CARTESIAN_POINT('',(23.5303149606299,11.8110236220472,0.47244094488189));
#948=CARTESIAN_POINT('Origin',(23.6220472440945,11.8110236220472,0.47244094488189));
#949=CARTESIAN_POINT('',(23.5303149606299,11.8110236220472,0.));
#950=CARTESIAN_POINT('',(23.5303149606299,11.8110236220472,0.));
#951=CARTESIAN_POINT('Origin',(23.6220472440945,11.8110236220472,0.));
#952=CARTESIAN_POINT('Origin',(23.6220472440945,11.8110236220472,0.47244094488189));
#953=CARTESIAN_POINT('Origin',(23.6220472440945,11.8110236220472,0.));
#954=UNCERTAINTY_MEASURE_WITH_UNIT(LENGTH_MEASURE(0.000393700787401575),
#959,'DISTANCE_ACCURACY_VALUE',
'Maximum model space distance between geometric entities at asserted c
onnectivities');
#955=UNCERTAINTY_MEASURE_WITH_UNIT(LENGTH_MEASURE(0.000393700787401575),
#959,'DISTANCE_ACCURACY_VALUE',
'Maximum model space distance between geometric entities at asserted c
onnectivities');
#956=(
GEOMETRIC_REPRESENTATION_CONTEXT(3)
GLOBAL_UNCERTAINTY_ASSIGNED_CONTEXT((#954))
GLOBAL_UNIT_ASSIGNED_CONTEXT((#959,#963,#964))
REPRESENTATION_CONTEXT('','3D')
);
#957=(
GEOMETRIC_REPRESENTATION_CONTEXT(3)
GLOBAL_UNCERTAINTY_ASSIGNED_CONTEXT((#955))
GLOBAL_UNIT_ASSIGNED_CONTEXT((#959,#963,#964))
REPRESENTATION_CONTEXT('','3D')
);
#958=DIMENSIONAL_EXPONENTS(1.,0.,0.,0.,0.,0.,0.);
#959=(
CONVERSION_BASED_UNIT('inch',#962)
LENGTH_UNIT()
NAMED_UNIT(#958)
);
#960=(
LENGTH_UNIT()
NAMED_UNIT(*)
SI_UNIT(.MILLI.,.METRE.)
);
#961=(
LENGTH_UNIT()
NAMED_UNIT(*)
SI_UNIT($,.METRE.)
);
#962=LENGTH_MEASURE_WITH_UNIT(LENGTH_MEASURE(25.4),#960);
#963=(
NAMED_UNIT(*)
PLANE_ANGLE_UNIT()
SI_UNIT($,.RADIAN.)
);
#964=(
NAMED_UNIT(*)
SI_UNIT($,.STERADIAN.)
SOLID_ANGLE_UNIT()
);
#965=SHAPE_DEFINITION_REPRESENTATION(#966,#967);
#966=PRODUCT_DEFINITION_SHAPE('',$,#969);
#967=SHAPE_REPRESENTATION('',(#586),#956);
#968=PRODUCT_DEFINITION_CONTEXT('part definition',#973,'design');
#969=PRODUCT_DEFINITION('2026-09-02-21-25-34-973','Truss',#970,#968);
#970=PRODUCT_DEFINITION_FORMATION('',$,#975);
#971=PRODUCT_RELATED_PRODUCT_CATEGORY('Truss','Truss',(#975));
#972=APPLICATION_PROTOCOL_DEFINITION('international standard',
'automotive_design',2009,#973);
#973=APPLICATION_CONTEXT(
'Core Data for Automotive Mechanical Design Process');
#974=PRODUCT_CONTEXT('part definition',#973,'mechanical');
#975=PRODUCT('2026-09-02-21-25-34-973','Truss',$,(#974));
#976=PRESENTATION_STYLE_ASSIGNMENT((#978));
#977=PRESENTATION_STYLE_ASSIGNMENT((#979));
#978=SURFACE_STYLE_USAGE(.BOTH.,#980);
#979=SURFACE_STYLE_USAGE(.BOTH.,#981);
#980=SURFACE_SIDE_STYLE('',(#982));
#981=SURFACE_SIDE_STYLE('',(#983));
#982=SURFACE_STYLE_FILL_AREA(#984);
#983=SURFACE_STYLE_FILL_AREA(#985);
#984=FILL_AREA_STYLE('Steel - Satin',(#986));
#985=FILL_AREA_STYLE('Polymide (Kapton)',(#987));
#986=FILL_AREA_STYLE_COLOUR('Steel - Satin',#988);
#987=FILL_AREA_STYLE_COLOUR('Polymide (Kapton)',#989);
#988=COLOUR_RGB('Steel - Satin',0.627450980392157,0.627450980392157,0.627450980392157);
#989=COLOUR_RGB('Polymide (Kapton)',0.784313725490196,0.556862745098039,
0.0274509803921569);
ENDSEC;
END-ISO-10303-21;
