ISO-10303-21;
HEADER;
/* Generated by software containing ST-Developer
 * from STEP Tools, Inc. (www.steptools.com) 
 */

FILE_DESCRIPTION(
/* description */ (''),
/* implementation_level */ '2;1');

FILE_NAME(
/* name */ 'A6.step',
/* time_stamp */ '2026-09-30T21:41:31-04:00',
/* author */ (''),
/* organization */ (''),
/* preprocessor_version */ 'ST-DEVELOPER v20.2',
/* originating_system */ 'Autodesk Translation Framework v15.15.0.0',
/* authorisation */ '');

FILE_SCHEMA (('AUTOMOTIVE_DESIGN { 1 0 10303 214 3 1 1 }'));
ENDSEC;

DATA;
#10=MECHANICAL_DESIGN_GEOMETRIC_PRESENTATION_REPRESENTATION('',(#13),#639);
#11=SHAPE_REPRESENTATION_RELATIONSHIP('SRR','None',#649,#12);
#12=ADVANCED_BREP_SHAPE_REPRESENTATION('',(#14),#638);
#13=STYLED_ITEM('',(#658),#14);
#14=MANIFOLD_SOLID_BREP('Body1',#392);
#15=CYLINDRICAL_SURFACE('',#425,0.794576006724267);
#16=CIRCLE('',#423,0.794576006724267);
#17=CIRCLE('',#424,0.794576006724267);
#18=CIRCLE('',#426,0.794576006724267);
#19=FACE_OUTER_BOUND('',#39,.T.);
#20=FACE_OUTER_BOUND('',#40,.T.);
#21=FACE_OUTER_BOUND('',#41,.T.);
#22=FACE_OUTER_BOUND('',#42,.T.);
#23=FACE_OUTER_BOUND('',#43,.T.);
#24=FACE_OUTER_BOUND('',#44,.T.);
#25=FACE_OUTER_BOUND('',#45,.T.);
#26=FACE_OUTER_BOUND('',#46,.T.);
#27=FACE_OUTER_BOUND('',#47,.T.);
#28=FACE_OUTER_BOUND('',#48,.T.);
#29=FACE_OUTER_BOUND('',#49,.T.);
#30=FACE_OUTER_BOUND('',#50,.T.);
#31=FACE_OUTER_BOUND('',#51,.T.);
#32=FACE_OUTER_BOUND('',#52,.T.);
#33=FACE_OUTER_BOUND('',#53,.T.);
#34=FACE_OUTER_BOUND('',#54,.T.);
#35=FACE_OUTER_BOUND('',#55,.T.);
#36=FACE_OUTER_BOUND('',#56,.T.);
#37=FACE_OUTER_BOUND('',#57,.T.);
#38=FACE_OUTER_BOUND('',#58,.T.);
#39=EDGE_LOOP('',(#247,#248,#249,#250));
#40=EDGE_LOOP('',(#251,#252,#253,#254));
#41=EDGE_LOOP('',(#255,#256,#257,#258));
#42=EDGE_LOOP('',(#259,#260,#261,#262));
#43=EDGE_LOOP('',(#263,#264,#265,#266));
#44=EDGE_LOOP('',(#267,#268,#269,#270));
#45=EDGE_LOOP('',(#271,#272,#273,#274));
#46=EDGE_LOOP('',(#275,#276,#277,#278));
#47=EDGE_LOOP('',(#279,#280,#281,#282));
#48=EDGE_LOOP('',(#283,#284,#285,#286));
#49=EDGE_LOOP('',(#287,#288,#289,#290,#291,#292,#293,#294));
#50=EDGE_LOOP('',(#295,#296,#297,#298));
#51=EDGE_LOOP('',(#299,#300,#301,#302,#303,#304,#305,#306,#307,#308,#309,
#310));
#52=EDGE_LOOP('',(#311,#312,#313,#314,#315));
#53=EDGE_LOOP('',(#316,#317,#318,#319));
#54=EDGE_LOOP('',(#320,#321,#322,#323));
#55=EDGE_LOOP('',(#324,#325,#326,#327,#328,#329,#330));
#56=EDGE_LOOP('',(#331,#332,#333,#334,#335));
#57=EDGE_LOOP('',(#336));
#58=EDGE_LOOP('',(#337,#338,#339,#340,#341,#342,#343,#344,#345,#346,#347,
#348,#349,#350,#351,#352));
#59=LINE('',#531,#109);
#60=LINE('',#533,#110);
#61=LINE('',#535,#111);
#62=LINE('',#536,#112);
#63=LINE('',#540,#113);
#64=LINE('',#542,#114);
#65=LINE('',#544,#115);
#66=LINE('',#545,#116);
#67=LINE('',#547,#117);
#68=LINE('',#548,#118);
#69=LINE('',#552,#119);
#70=LINE('',#554,#120);
#71=LINE('',#556,#121);
#72=LINE('',#557,#122);
#73=LINE('',#560,#123);
#74=LINE('',#562,#124);
#75=LINE('',#563,#125);
#76=LINE('',#566,#126);
#77=LINE('',#568,#127);
#78=LINE('',#569,#128);
#79=LINE('',#573,#129);
#80=LINE('',#574,#130);
#81=LINE('',#575,#131);
#82=LINE('',#578,#132);
#83=LINE('',#580,#133);
#84=LINE('',#581,#134);
#85=LINE('',#585,#135);
#86=LINE('',#586,#136);
#87=LINE('',#587,#137);
#88=LINE('',#590,#138);
#89=LINE('',#592,#139);
#90=LINE('',#593,#140);
#91=LINE('',#597,#141);
#92=LINE('',#599,#142);
#93=LINE('',#601,#143);
#94=LINE('',#602,#144);
#95=LINE('',#603,#145);
#96=LINE('',#604,#146);
#97=LINE('',#606,#147);
#98=LINE('',#607,#148);
#99=LINE('',#612,#149);
#100=LINE('',#614,#150);
#101=LINE('',#616,#151);
#102=LINE('',#618,#152);
#103=LINE('',#619,#153);
#104=LINE('',#621,#154);
#105=LINE('',#622,#155);
#106=LINE('',#624,#156);
#107=LINE('',#625,#157);
#108=LINE('',#633,#158);
#109=VECTOR('',#433,0.393700787401575);
#110=VECTOR('',#434,0.393700787401575);
#111=VECTOR('',#435,0.393700787401575);
#112=VECTOR('',#436,0.393700787401575);
#113=VECTOR('',#439,0.393700787401575);
#114=VECTOR('',#440,0.393700787401575);
#115=VECTOR('',#441,0.393700787401575);
#116=VECTOR('',#442,0.393700787401575);
#117=VECTOR('',#445,0.393700787401575);
#118=VECTOR('',#446,0.393700787401575);
#119=VECTOR('',#449,0.393700787401575);
#120=VECTOR('',#450,0.393700787401575);
#121=VECTOR('',#451,0.393700787401575);
#122=VECTOR('',#452,0.393700787401575);
#123=VECTOR('',#455,0.393700787401575);
#124=VECTOR('',#456,0.393700787401575);
#125=VECTOR('',#457,0.393700787401575);
#126=VECTOR('',#460,0.393700787401575);
#127=VECTOR('',#461,0.393700787401575);
#128=VECTOR('',#462,0.393700787401575);
#129=VECTOR('',#465,0.393700787401575);
#130=VECTOR('',#466,0.393700787401575);
#131=VECTOR('',#467,0.393700787401575);
#132=VECTOR('',#470,0.393700787401575);
#133=VECTOR('',#471,0.393700787401575);
#134=VECTOR('',#472,0.393700787401575);
#135=VECTOR('',#475,0.393700787401575);
#136=VECTOR('',#476,0.393700787401575);
#137=VECTOR('',#477,0.393700787401575);
#138=VECTOR('',#480,0.393700787401575);
#139=VECTOR('',#481,0.393700787401575);
#140=VECTOR('',#482,0.393700787401575);
#141=VECTOR('',#485,0.393700787401575);
#142=VECTOR('',#486,0.393700787401575);
#143=VECTOR('',#487,0.393700787401575);
#144=VECTOR('',#488,0.393700787401575);
#145=VECTOR('',#489,0.393700787401575);
#146=VECTOR('',#490,0.393700787401575);
#147=VECTOR('',#493,0.393700787401575);
#148=VECTOR('',#494,0.393700787401575);
#149=VECTOR('',#499,0.393700787401575);
#150=VECTOR('',#500,0.393700787401575);
#151=VECTOR('',#501,0.393700787401575);
#152=VECTOR('',#502,0.393700787401575);
#153=VECTOR('',#503,0.393700787401575);
#154=VECTOR('',#506,0.393700787401575);
#155=VECTOR('',#507,0.393700787401575);
#156=VECTOR('',#510,0.393700787401575);
#157=VECTOR('',#511,0.393700787401575);
#158=VECTOR('',#522,0.794576006724267);
#159=VERTEX_POINT('',#529);
#160=VERTEX_POINT('',#530);
#161=VERTEX_POINT('',#532);
#162=VERTEX_POINT('',#534);
#163=VERTEX_POINT('',#538);
#164=VERTEX_POINT('',#539);
#165=VERTEX_POINT('',#541);
#166=VERTEX_POINT('',#543);
#167=VERTEX_POINT('',#550);
#168=VERTEX_POINT('',#551);
#169=VERTEX_POINT('',#553);
#170=VERTEX_POINT('',#555);
#171=VERTEX_POINT('',#559);
#172=VERTEX_POINT('',#561);
#173=VERTEX_POINT('',#565);
#174=VERTEX_POINT('',#567);
#175=VERTEX_POINT('',#571);
#176=VERTEX_POINT('',#572);
#177=VERTEX_POINT('',#577);
#178=VERTEX_POINT('',#579);
#179=VERTEX_POINT('',#583);
#180=VERTEX_POINT('',#584);
#181=VERTEX_POINT('',#589);
#182=VERTEX_POINT('',#591);
#183=VERTEX_POINT('',#595);
#184=VERTEX_POINT('',#596);
#185=VERTEX_POINT('',#598);
#186=VERTEX_POINT('',#600);
#187=VERTEX_POINT('',#610);
#188=VERTEX_POINT('',#611);
#189=VERTEX_POINT('',#613);
#190=VERTEX_POINT('',#615);
#191=VERTEX_POINT('',#617);
#192=VERTEX_POINT('',#627);
#193=VERTEX_POINT('',#631);
#194=EDGE_CURVE('',#159,#160,#59,.T.);
#195=EDGE_CURVE('',#159,#161,#60,.T.);
#196=EDGE_CURVE('',#161,#162,#61,.T.);
#197=EDGE_CURVE('',#160,#162,#62,.T.);
#198=EDGE_CURVE('',#163,#164,#63,.T.);
#199=EDGE_CURVE('',#164,#165,#64,.T.);
#200=EDGE_CURVE('',#166,#165,#65,.T.);
#201=EDGE_CURVE('',#163,#166,#66,.T.);
#202=EDGE_CURVE('',#161,#163,#67,.T.);
#203=EDGE_CURVE('',#162,#166,#68,.T.);
#204=EDGE_CURVE('',#167,#168,#69,.T.);
#205=EDGE_CURVE('',#169,#168,#70,.T.);
#206=EDGE_CURVE('',#170,#169,#71,.T.);
#207=EDGE_CURVE('',#167,#170,#72,.T.);
#208=EDGE_CURVE('',#170,#171,#73,.T.);
#209=EDGE_CURVE('',#172,#169,#74,.T.);
#210=EDGE_CURVE('',#171,#172,#75,.T.);
#211=EDGE_CURVE('',#171,#173,#76,.T.);
#212=EDGE_CURVE('',#174,#172,#77,.T.);
#213=EDGE_CURVE('',#173,#174,#78,.T.);
#214=EDGE_CURVE('',#175,#176,#79,.T.);
#215=EDGE_CURVE('',#168,#176,#80,.T.);
#216=EDGE_CURVE('',#167,#175,#81,.T.);
#217=EDGE_CURVE('',#177,#173,#82,.T.);
#218=EDGE_CURVE('',#178,#174,#83,.T.);
#219=EDGE_CURVE('',#177,#178,#84,.T.);
#220=EDGE_CURVE('',#179,#180,#85,.T.);
#221=EDGE_CURVE('',#159,#179,#86,.T.);
#222=EDGE_CURVE('',#180,#160,#87,.T.);
#223=EDGE_CURVE('',#164,#181,#88,.T.);
#224=EDGE_CURVE('',#181,#182,#89,.T.);
#225=EDGE_CURVE('',#165,#182,#90,.T.);
#226=EDGE_CURVE('',#183,#184,#91,.T.);
#227=EDGE_CURVE('',#185,#184,#92,.T.);
#228=EDGE_CURVE('',#186,#185,#93,.T.);
#229=EDGE_CURVE('',#177,#186,#94,.T.);
#230=EDGE_CURVE('',#182,#178,#95,.T.);
#231=EDGE_CURVE('',#183,#181,#96,.T.);
#232=EDGE_CURVE('',#179,#175,#97,.T.);
#233=EDGE_CURVE('',#176,#180,#98,.T.);
#234=EDGE_CURVE('',#187,#188,#99,.T.);
#235=EDGE_CURVE('',#188,#189,#100,.T.);
#236=EDGE_CURVE('',#190,#189,#101,.T.);
#237=EDGE_CURVE('',#191,#190,#102,.T.);
#238=EDGE_CURVE('',#187,#191,#103,.T.);
#239=EDGE_CURVE('',#183,#187,#104,.T.);
#240=EDGE_CURVE('',#184,#191,#105,.T.);
#241=EDGE_CURVE('',#188,#186,#106,.T.);
#242=EDGE_CURVE('',#189,#185,#107,.T.);
#243=EDGE_CURVE('',#192,#190,#16,.T.);
#244=EDGE_CURVE('',#190,#192,#17,.T.);
#245=EDGE_CURVE('',#193,#193,#18,.T.);
#246=EDGE_CURVE('',#193,#192,#108,.T.);
#247=ORIENTED_EDGE('',*,*,#194,.F.);
#248=ORIENTED_EDGE('',*,*,#195,.T.);
#249=ORIENTED_EDGE('',*,*,#196,.T.);
#250=ORIENTED_EDGE('',*,*,#197,.F.);
#251=ORIENTED_EDGE('',*,*,#198,.T.);
#252=ORIENTED_EDGE('',*,*,#199,.T.);
#253=ORIENTED_EDGE('',*,*,#200,.F.);
#254=ORIENTED_EDGE('',*,*,#201,.F.);
#255=ORIENTED_EDGE('',*,*,#202,.T.);
#256=ORIENTED_EDGE('',*,*,#201,.T.);
#257=ORIENTED_EDGE('',*,*,#203,.F.);
#258=ORIENTED_EDGE('',*,*,#196,.F.);
#259=ORIENTED_EDGE('',*,*,#204,.T.);
#260=ORIENTED_EDGE('',*,*,#205,.F.);
#261=ORIENTED_EDGE('',*,*,#206,.F.);
#262=ORIENTED_EDGE('',*,*,#207,.F.);
#263=ORIENTED_EDGE('',*,*,#208,.F.);
#264=ORIENTED_EDGE('',*,*,#206,.T.);
#265=ORIENTED_EDGE('',*,*,#209,.F.);
#266=ORIENTED_EDGE('',*,*,#210,.F.);
#267=ORIENTED_EDGE('',*,*,#211,.F.);
#268=ORIENTED_EDGE('',*,*,#210,.T.);
#269=ORIENTED_EDGE('',*,*,#212,.F.);
#270=ORIENTED_EDGE('',*,*,#213,.F.);
#271=ORIENTED_EDGE('',*,*,#214,.T.);
#272=ORIENTED_EDGE('',*,*,#215,.F.);
#273=ORIENTED_EDGE('',*,*,#204,.F.);
#274=ORIENTED_EDGE('',*,*,#216,.T.);
#275=ORIENTED_EDGE('',*,*,#217,.T.);
#276=ORIENTED_EDGE('',*,*,#213,.T.);
#277=ORIENTED_EDGE('',*,*,#218,.F.);
#278=ORIENTED_EDGE('',*,*,#219,.F.);
#279=ORIENTED_EDGE('',*,*,#220,.F.);
#280=ORIENTED_EDGE('',*,*,#221,.F.);
#281=ORIENTED_EDGE('',*,*,#194,.T.);
#282=ORIENTED_EDGE('',*,*,#222,.F.);
#283=ORIENTED_EDGE('',*,*,#223,.T.);
#284=ORIENTED_EDGE('',*,*,#224,.T.);
#285=ORIENTED_EDGE('',*,*,#225,.F.);
#286=ORIENTED_EDGE('',*,*,#199,.F.);
#287=ORIENTED_EDGE('',*,*,#226,.T.);
#288=ORIENTED_EDGE('',*,*,#227,.F.);
#289=ORIENTED_EDGE('',*,*,#228,.F.);
#290=ORIENTED_EDGE('',*,*,#229,.F.);
#291=ORIENTED_EDGE('',*,*,#219,.T.);
#292=ORIENTED_EDGE('',*,*,#230,.F.);
#293=ORIENTED_EDGE('',*,*,#224,.F.);
#294=ORIENTED_EDGE('',*,*,#231,.F.);
#295=ORIENTED_EDGE('',*,*,#232,.F.);
#296=ORIENTED_EDGE('',*,*,#220,.T.);
#297=ORIENTED_EDGE('',*,*,#233,.F.);
#298=ORIENTED_EDGE('',*,*,#214,.F.);
#299=ORIENTED_EDGE('',*,*,#230,.T.);
#300=ORIENTED_EDGE('',*,*,#218,.T.);
#301=ORIENTED_EDGE('',*,*,#212,.T.);
#302=ORIENTED_EDGE('',*,*,#209,.T.);
#303=ORIENTED_EDGE('',*,*,#205,.T.);
#304=ORIENTED_EDGE('',*,*,#215,.T.);
#305=ORIENTED_EDGE('',*,*,#233,.T.);
#306=ORIENTED_EDGE('',*,*,#222,.T.);
#307=ORIENTED_EDGE('',*,*,#197,.T.);
#308=ORIENTED_EDGE('',*,*,#203,.T.);
#309=ORIENTED_EDGE('',*,*,#200,.T.);
#310=ORIENTED_EDGE('',*,*,#225,.T.);
#311=ORIENTED_EDGE('',*,*,#234,.T.);
#312=ORIENTED_EDGE('',*,*,#235,.T.);
#313=ORIENTED_EDGE('',*,*,#236,.F.);
#314=ORIENTED_EDGE('',*,*,#237,.F.);
#315=ORIENTED_EDGE('',*,*,#238,.F.);
#316=ORIENTED_EDGE('',*,*,#239,.T.);
#317=ORIENTED_EDGE('',*,*,#238,.T.);
#318=ORIENTED_EDGE('',*,*,#240,.F.);
#319=ORIENTED_EDGE('',*,*,#226,.F.);
#320=ORIENTED_EDGE('',*,*,#241,.T.);
#321=ORIENTED_EDGE('',*,*,#228,.T.);
#322=ORIENTED_EDGE('',*,*,#242,.F.);
#323=ORIENTED_EDGE('',*,*,#235,.F.);
#324=ORIENTED_EDGE('',*,*,#242,.T.);
#325=ORIENTED_EDGE('',*,*,#227,.T.);
#326=ORIENTED_EDGE('',*,*,#240,.T.);
#327=ORIENTED_EDGE('',*,*,#237,.T.);
#328=ORIENTED_EDGE('',*,*,#243,.F.);
#329=ORIENTED_EDGE('',*,*,#244,.F.);
#330=ORIENTED_EDGE('',*,*,#236,.T.);
#331=ORIENTED_EDGE('',*,*,#245,.F.);
#332=ORIENTED_EDGE('',*,*,#246,.T.);
#333=ORIENTED_EDGE('',*,*,#243,.T.);
#334=ORIENTED_EDGE('',*,*,#244,.T.);
#335=ORIENTED_EDGE('',*,*,#246,.F.);
#336=ORIENTED_EDGE('',*,*,#245,.T.);
#337=ORIENTED_EDGE('',*,*,#234,.F.);
#338=ORIENTED_EDGE('',*,*,#239,.F.);
#339=ORIENTED_EDGE('',*,*,#231,.T.);
#340=ORIENTED_EDGE('',*,*,#223,.F.);
#341=ORIENTED_EDGE('',*,*,#198,.F.);
#342=ORIENTED_EDGE('',*,*,#202,.F.);
#343=ORIENTED_EDGE('',*,*,#195,.F.);
#344=ORIENTED_EDGE('',*,*,#221,.T.);
#345=ORIENTED_EDGE('',*,*,#232,.T.);
#346=ORIENTED_EDGE('',*,*,#216,.F.);
#347=ORIENTED_EDGE('',*,*,#207,.T.);
#348=ORIENTED_EDGE('',*,*,#208,.T.);
#349=ORIENTED_EDGE('',*,*,#211,.T.);
#350=ORIENTED_EDGE('',*,*,#217,.F.);
#351=ORIENTED_EDGE('',*,*,#229,.T.);
#352=ORIENTED_EDGE('',*,*,#241,.F.);
#353=PLANE('',#406);
#354=PLANE('',#407);
#355=PLANE('',#408);
#356=PLANE('',#409);
#357=PLANE('',#410);
#358=PLANE('',#411);
#359=PLANE('',#412);
#360=PLANE('',#413);
#361=PLANE('',#414);
#362=PLANE('',#415);
#363=PLANE('',#416);
#364=PLANE('',#417);
#365=PLANE('',#418);
#366=PLANE('',#419);
#367=PLANE('',#420);
#368=PLANE('',#421);
#369=PLANE('',#422);
#370=PLANE('',#427);
#371=PLANE('',#428);
#372=ADVANCED_FACE('',(#19),#353,.T.);
#373=ADVANCED_FACE('',(#20),#354,.T.);
#374=ADVANCED_FACE('',(#21),#355,.T.);
#375=ADVANCED_FACE('',(#22),#356,.T.);
#376=ADVANCED_FACE('',(#23),#357,.T.);
#377=ADVANCED_FACE('',(#24),#358,.T.);
#378=ADVANCED_FACE('',(#25),#359,.T.);
#379=ADVANCED_FACE('',(#26),#360,.T.);
#380=ADVANCED_FACE('',(#27),#361,.T.);
#381=ADVANCED_FACE('',(#28),#362,.T.);
#382=ADVANCED_FACE('',(#29),#363,.T.);
#383=ADVANCED_FACE('',(#30),#364,.T.);
#384=ADVANCED_FACE('',(#31),#365,.T.);
#385=ADVANCED_FACE('',(#32),#366,.T.);
#386=ADVANCED_FACE('',(#33),#367,.T.);
#387=ADVANCED_FACE('',(#34),#368,.T.);
#388=ADVANCED_FACE('',(#35),#369,.T.);
#389=ADVANCED_FACE('',(#36),#15,.T.);
#390=ADVANCED_FACE('',(#37),#370,.T.);
#391=ADVANCED_FACE('',(#38),#371,.F.);
#392=CLOSED_SHELL('',(#372,#373,#374,#375,#376,#377,#378,#379,#380,#381,
#382,#383,#384,#385,#386,#387,#388,#389,#390,#391));
#393=DERIVED_UNIT_ELEMENT(#395,1.);
#394=DERIVED_UNIT_ELEMENT(#643,-3.);
#395=(
MASS_UNIT()
NAMED_UNIT(*)
SI_UNIT(.KILO.,.GRAM.)
);
#396=DERIVED_UNIT((#393,#394));
#397=MEASURE_REPRESENTATION_ITEM('density measure',
POSITIVE_RATIO_MEASURE(7850.),#396);
#398=PROPERTY_DEFINITION_REPRESENTATION(#403,#400);
#399=PROPERTY_DEFINITION_REPRESENTATION(#404,#401);
#400=REPRESENTATION('material name',(#402),#638);
#401=REPRESENTATION('density',(#397),#638);
#402=DESCRIPTIVE_REPRESENTATION_ITEM('Steel','Steel');
#403=PROPERTY_DEFINITION('material property','material name',#651);
#404=PROPERTY_DEFINITION('material property','density of part',#651);
#405=AXIS2_PLACEMENT_3D('',#527,#429,#430);
#406=AXIS2_PLACEMENT_3D('',#528,#431,#432);
#407=AXIS2_PLACEMENT_3D('',#537,#437,#438);
#408=AXIS2_PLACEMENT_3D('',#546,#443,#444);
#409=AXIS2_PLACEMENT_3D('',#549,#447,#448);
#410=AXIS2_PLACEMENT_3D('',#558,#453,#454);
#411=AXIS2_PLACEMENT_3D('',#564,#458,#459);
#412=AXIS2_PLACEMENT_3D('',#570,#463,#464);
#413=AXIS2_PLACEMENT_3D('',#576,#468,#469);
#414=AXIS2_PLACEMENT_3D('',#582,#473,#474);
#415=AXIS2_PLACEMENT_3D('',#588,#478,#479);
#416=AXIS2_PLACEMENT_3D('',#594,#483,#484);
#417=AXIS2_PLACEMENT_3D('',#605,#491,#492);
#418=AXIS2_PLACEMENT_3D('',#608,#495,#496);
#419=AXIS2_PLACEMENT_3D('',#609,#497,#498);
#420=AXIS2_PLACEMENT_3D('',#620,#504,#505);
#421=AXIS2_PLACEMENT_3D('',#623,#508,#509);
#422=AXIS2_PLACEMENT_3D('',#626,#512,#513);
#423=AXIS2_PLACEMENT_3D('',#628,#514,#515);
#424=AXIS2_PLACEMENT_3D('',#629,#516,#517);
#425=AXIS2_PLACEMENT_3D('',#630,#518,#519);
#426=AXIS2_PLACEMENT_3D('',#632,#520,#521);
#427=AXIS2_PLACEMENT_3D('',#634,#523,#524);
#428=AXIS2_PLACEMENT_3D('',#635,#525,#526);
#429=DIRECTION('axis',(0.,0.,1.));
#430=DIRECTION('refdir',(1.,0.,0.));
#431=DIRECTION('center_axis',(0.,0.,-1.));
#432=DIRECTION('ref_axis',(-1.,0.,0.));
#433=DIRECTION('',(0.,1.,0.));
#434=DIRECTION('',(-1.,0.,0.));
#435=DIRECTION('',(0.,1.,0.));
#436=DIRECTION('',(-1.,0.,0.));
#437=DIRECTION('center_axis',(0.,0.,1.));
#438=DIRECTION('ref_axis',(1.,0.,0.));
#439=DIRECTION('',(1.,0.,0.));
#440=DIRECTION('',(0.,1.,0.));
#441=DIRECTION('',(1.,0.,0.));
#442=DIRECTION('',(0.,1.,0.));
#443=DIRECTION('center_axis',(-1.,0.,0.));
#444=DIRECTION('ref_axis',(0.,0.,1.));
#445=DIRECTION('',(0.,0.,1.));
#446=DIRECTION('',(0.,0.,1.));
#447=DIRECTION('center_axis',(0.,0.,-1.));
#448=DIRECTION('ref_axis',(-1.,0.,0.));
#449=DIRECTION('',(0.,1.,0.));
#450=DIRECTION('',(-1.,0.,0.));
#451=DIRECTION('',(0.,1.,0.));
#452=DIRECTION('',(1.,0.,0.));
#453=DIRECTION('center_axis',(1.,0.,0.));
#454=DIRECTION('ref_axis',(0.,0.,-1.));
#455=DIRECTION('',(0.,0.,1.));
#456=DIRECTION('',(0.,0.,-1.));
#457=DIRECTION('',(0.,1.,0.));
#458=DIRECTION('center_axis',(0.,0.,1.));
#459=DIRECTION('ref_axis',(1.,0.,0.));
#460=DIRECTION('',(-1.,0.,0.));
#461=DIRECTION('',(1.,0.,0.));
#462=DIRECTION('',(0.,1.,0.));
#463=DIRECTION('center_axis',(1.,0.,0.));
#464=DIRECTION('ref_axis',(0.,0.,-1.));
#465=DIRECTION('',(0.,1.,0.));
#466=DIRECTION('',(0.,0.,-1.));
#467=DIRECTION('',(0.,0.,-1.));
#468=DIRECTION('center_axis',(-1.,0.,0.));
#469=DIRECTION('ref_axis',(0.,0.,1.));
#470=DIRECTION('',(0.,0.,1.));
#471=DIRECTION('',(0.,0.,1.));
#472=DIRECTION('',(0.,1.,0.));
#473=DIRECTION('center_axis',(-1.,0.,0.));
#474=DIRECTION('ref_axis',(0.,0.,1.));
#475=DIRECTION('',(0.,1.,0.));
#476=DIRECTION('',(0.,0.,-1.));
#477=DIRECTION('',(0.,0.,1.));
#478=DIRECTION('center_axis',(1.,0.,0.));
#479=DIRECTION('ref_axis',(0.,0.,-1.));
#480=DIRECTION('',(0.,0.,-1.));
#481=DIRECTION('',(0.,1.,0.));
#482=DIRECTION('',(0.,0.,-1.));
#483=DIRECTION('center_axis',(0.,0.,-1.));
#484=DIRECTION('ref_axis',(-1.,0.,0.));
#485=DIRECTION('',(0.,1.,0.));
#486=DIRECTION('',(1.,0.,0.));
#487=DIRECTION('',(0.,1.,0.));
#488=DIRECTION('',(1.,0.,0.));
#489=DIRECTION('',(-1.,0.,0.));
#490=DIRECTION('',(1.,0.,0.));
#491=DIRECTION('center_axis',(0.,0.,1.));
#492=DIRECTION('ref_axis',(1.,0.,0.));
#493=DIRECTION('',(-1.,0.,0.));
#494=DIRECTION('',(1.,0.,0.));
#495=DIRECTION('center_axis',(0.,1.,0.));
#496=DIRECTION('ref_axis',(0.,0.,1.));
#497=DIRECTION('center_axis',(0.,0.,-1.));
#498=DIRECTION('ref_axis',(-1.,0.,0.));
#499=DIRECTION('',(-1.,0.,0.));
#500=DIRECTION('',(0.,1.,0.));
#501=DIRECTION('',(-1.,0.,0.));
#502=DIRECTION('',(-1.,0.,0.));
#503=DIRECTION('',(0.,1.,0.));
#504=DIRECTION('center_axis',(1.,0.,1.42997495851564E-16));
#505=DIRECTION('ref_axis',(1.42997495851564E-16,0.,-1.));
#506=DIRECTION('',(1.42997495851564E-16,0.,-1.));
#507=DIRECTION('',(1.42997495851564E-16,0.,-1.));
#508=DIRECTION('center_axis',(-1.,0.,0.));
#509=DIRECTION('ref_axis',(0.,0.,1.));
#510=DIRECTION('',(0.,0.,1.));
#511=DIRECTION('',(0.,0.,1.));
#512=DIRECTION('center_axis',(0.,1.,0.));
#513=DIRECTION('ref_axis',(1.,0.,0.));
#514=DIRECTION('center_axis',(0.,1.,0.));
#515=DIRECTION('ref_axis',(1.,0.,0.));
#516=DIRECTION('center_axis',(0.,1.,0.));
#517=DIRECTION('ref_axis',(1.,0.,0.));
#518=DIRECTION('center_axis',(0.,1.,0.));
#519=DIRECTION('ref_axis',(1.,0.,0.));
#520=DIRECTION('center_axis',(0.,1.,0.));
#521=DIRECTION('ref_axis',(1.,0.,0.));
#522=DIRECTION('',(0.,-1.,0.));
#523=DIRECTION('center_axis',(0.,1.,0.));
#524=DIRECTION('ref_axis',(1.,0.,0.));
#525=DIRECTION('center_axis',(0.,1.,0.));
#526=DIRECTION('ref_axis',(1.,0.,0.));
#527=CARTESIAN_POINT('',(0.,0.,0.));
#528=CARTESIAN_POINT('Origin',(1.38964285714286,0.,19.1104239932757));
#529=CARTESIAN_POINT('',(1.2525,0.,19.1104239932757));
#530=CARTESIAN_POINT('',(1.2525,2.,19.1104239932757));
#531=CARTESIAN_POINT('',(1.2525,0.,19.1104239932757));
#532=CARTESIAN_POINT('',(0.272642857142856,0.,19.1104239932757));
#533=CARTESIAN_POINT('',(1.38964285714286,0.,19.1104239932757));
#534=CARTESIAN_POINT('',(0.272642857142856,2.,19.1104239932757));
#535=CARTESIAN_POINT('',(0.272642857142856,0.,19.1104239932757));
#536=CARTESIAN_POINT('',(1.38964285714286,2.,19.1104239932757));
#537=CARTESIAN_POINT('Origin',(0.272642857142856,0.,19.2604239932757));
#538=CARTESIAN_POINT('',(0.272642857142856,0.,19.2604239932757));
#539=CARTESIAN_POINT('',(1.38964285714286,0.,19.2604239932757));
#540=CARTESIAN_POINT('',(0.272642857142856,0.,19.2604239932757));
#541=CARTESIAN_POINT('',(1.38964285714286,2.,19.2604239932757));
#542=CARTESIAN_POINT('',(1.38964285714286,0.,19.2604239932757));
#543=CARTESIAN_POINT('',(0.272642857142856,2.,19.2604239932757));
#544=CARTESIAN_POINT('',(0.272642857142856,2.,19.2604239932757));
#545=CARTESIAN_POINT('',(0.272642857142856,0.,19.2604239932757));
#546=CARTESIAN_POINT('Origin',(0.272642857142856,0.,19.1104239932757));
#547=CARTESIAN_POINT('',(0.272642857142856,0.,19.1104239932757));
#548=CARTESIAN_POINT('',(0.272642857142856,2.,19.1104239932757));
#549=CARTESIAN_POINT('Origin',(-0.272642857142859,0.,19.1104239932757));
#550=CARTESIAN_POINT('',(-1.2525,0.,19.1104239932757));
#551=CARTESIAN_POINT('',(-1.2525,2.,19.1104239932757));
#552=CARTESIAN_POINT('',(-1.2525,0.,19.1104239932757));
#553=CARTESIAN_POINT('',(-0.272642857142859,2.,19.1104239932757));
#554=CARTESIAN_POINT('',(-1.38964285714286,2.,19.1104239932757));
#555=CARTESIAN_POINT('',(-0.272642857142859,0.,19.1104239932757));
#556=CARTESIAN_POINT('',(-0.272642857142859,0.,19.1104239932757));
#557=CARTESIAN_POINT('',(-1.38964285714286,0.,19.1104239932757));
#558=CARTESIAN_POINT('Origin',(-0.272642857142859,0.,19.2604239932757));
#559=CARTESIAN_POINT('',(-0.272642857142859,0.,19.2604239932757));
#560=CARTESIAN_POINT('',(-0.272642857142859,0.,19.1104239932757));
#561=CARTESIAN_POINT('',(-0.272642857142859,2.,19.2604239932757));
#562=CARTESIAN_POINT('',(-0.272642857142859,2.,19.1104239932757));
#563=CARTESIAN_POINT('',(-0.272642857142859,0.,19.2604239932757));
#564=CARTESIAN_POINT('Origin',(-1.38964285714286,0.,19.2604239932757));
#565=CARTESIAN_POINT('',(-1.38964285714286,0.,19.2604239932757));
#566=CARTESIAN_POINT('',(-0.272642857142859,0.,19.2604239932757));
#567=CARTESIAN_POINT('',(-1.38964285714286,2.,19.2604239932757));
#568=CARTESIAN_POINT('',(-0.272642857142859,2.,19.2604239932757));
#569=CARTESIAN_POINT('',(-1.38964285714286,0.,19.2604239932757));
#570=CARTESIAN_POINT('Origin',(-1.2525,0.,19.1104239932757));
#571=CARTESIAN_POINT('',(-1.2525,0.,17.60983827899));
#572=CARTESIAN_POINT('',(-1.2525,2.,17.60983827899));
#573=CARTESIAN_POINT('',(-1.2525,0.,17.60983827899));
#574=CARTESIAN_POINT('',(-1.2525,2.,19.1104239932757));
#575=CARTESIAN_POINT('',(-1.2525,0.,19.1104239932757));
#576=CARTESIAN_POINT('Origin',(-1.38964285714286,0.,17.5454239932757));
#577=CARTESIAN_POINT('',(-1.38964285714286,0.,17.5454239932757));
#578=CARTESIAN_POINT('',(-1.38964285714286,0.,17.5454239932757));
#579=CARTESIAN_POINT('',(-1.38964285714286,2.,17.5454239932757));
#580=CARTESIAN_POINT('',(-1.38964285714286,2.,17.5454239932757));
#581=CARTESIAN_POINT('',(-1.38964285714286,0.,17.5454239932757));
#582=CARTESIAN_POINT('Origin',(1.2525,0.,17.5454239932757));
#583=CARTESIAN_POINT('',(1.2525,0.,17.60983827899));
#584=CARTESIAN_POINT('',(1.2525,2.,17.60983827899));
#585=CARTESIAN_POINT('',(1.2525,0.,17.60983827899));
#586=CARTESIAN_POINT('',(1.2525,0.,19.1104239932757));
#587=CARTESIAN_POINT('',(1.2525,2.,19.1104239932757));
#588=CARTESIAN_POINT('Origin',(1.38964285714286,0.,19.1104239932757));
#589=CARTESIAN_POINT('',(1.38964285714286,0.,17.5454239932757));
#590=CARTESIAN_POINT('',(1.38964285714286,0.,19.2604239932757));
#591=CARTESIAN_POINT('',(1.38964285714286,2.,17.5454239932757));
#592=CARTESIAN_POINT('',(1.38964285714286,0.,17.5454239932757));
#593=CARTESIAN_POINT('',(1.38964285714286,2.,19.2604239932757));
#594=CARTESIAN_POINT('Origin',(1.2525,0.,17.5454239932757));
#595=CARTESIAN_POINT('',(0.794999999999997,0.,17.5454239932757));
#596=CARTESIAN_POINT('',(0.794999999999997,0.458057142857143,17.5454239932757));
#597=CARTESIAN_POINT('',(0.794999999999997,0.,17.5454239932757));
#598=CARTESIAN_POINT('',(-0.795,0.458057142857143,17.5454239932757));
#599=CARTESIAN_POINT('',(-0.795,0.458057142857143,17.5454239932757));
#600=CARTESIAN_POINT('',(-0.795,0.,17.5454239932757));
#601=CARTESIAN_POINT('',(-0.795,0.,17.5454239932757));
#602=CARTESIAN_POINT('',(-1.2525,0.,17.5454239932757));
#603=CARTESIAN_POINT('',(1.2525,2.,17.5454239932757));
#604=CARTESIAN_POINT('',(-1.2525,0.,17.5454239932757));
#605=CARTESIAN_POINT('Origin',(-1.2525,0.,17.60983827899));
#606=CARTESIAN_POINT('',(1.2525,0.,17.60983827899));
#607=CARTESIAN_POINT('',(1.2525,2.,17.60983827899));
#608=CARTESIAN_POINT('Origin',(-1.3987061727561E-15,2.,17.5776311361329));
#609=CARTESIAN_POINT('Origin',(0.795,0.,-0.794576006724267));
#610=CARTESIAN_POINT('',(0.795,0.,-0.794576006724267));
#611=CARTESIAN_POINT('',(-0.795,0.,-0.794576006724267));
#612=CARTESIAN_POINT('',(0.795,0.,-0.794576006724267));
#613=CARTESIAN_POINT('',(-0.795,0.458057142857143,-0.794576006724267));
#614=CARTESIAN_POINT('',(-0.795,0.,-0.794576006724267));
#615=CARTESIAN_POINT('',(0.,0.458057142857143,-0.794576006724267));
#616=CARTESIAN_POINT('',(0.795,0.458057142857143,-0.794576006724267));
#617=CARTESIAN_POINT('',(0.795,0.458057142857143,-0.794576006724267));
#618=CARTESIAN_POINT('',(0.795,0.458057142857143,-0.794576006724267));
#619=CARTESIAN_POINT('',(0.795,0.,-0.794576006724267));
#620=CARTESIAN_POINT('Origin',(0.794999999999997,0.,17.5454239932757));
#621=CARTESIAN_POINT('',(0.794999999999997,0.,17.5454239932757));
#622=CARTESIAN_POINT('',(0.794999999999997,0.458057142857143,17.5454239932757));
#623=CARTESIAN_POINT('Origin',(-0.795,0.,-0.794576006724267));
#624=CARTESIAN_POINT('',(-0.795,0.,-0.794576006724267));
#625=CARTESIAN_POINT('',(-0.795,0.458057142857143,-0.794576006724267));
#626=CARTESIAN_POINT('Origin',(0.,0.458057142857143,8.37542399327573));
#627=CARTESIAN_POINT('',(-0.794576006724267,0.458057142857143,9.7307496331416E-17));
#628=CARTESIAN_POINT('Origin',(0.,0.458057142857143,0.));
#629=CARTESIAN_POINT('Origin',(0.,0.458057142857143,0.));
#630=CARTESIAN_POINT('Origin',(0.,0.,0.));
#631=CARTESIAN_POINT('',(-0.794576006724267,5.75,9.7307496331416E-17));
#632=CARTESIAN_POINT('Origin',(0.,5.75,0.));
#633=CARTESIAN_POINT('',(-0.794576006724267,0.,9.7307496331416E-17));
#634=CARTESIAN_POINT('Origin',(0.,5.75,0.));
#635=CARTESIAN_POINT('Origin',(0.,0.,0.));
#636=UNCERTAINTY_MEASURE_WITH_UNIT(LENGTH_MEASURE(0.000393700787401575),
#641,'DISTANCE_ACCURACY_VALUE',
'Maximum model space distance between geometric entities at asserted c
onnectivities');
#637=UNCERTAINTY_MEASURE_WITH_UNIT(LENGTH_MEASURE(0.000393700787401575),
#641,'DISTANCE_ACCURACY_VALUE',
'Maximum model space distance between geometric entities at asserted c
onnectivities');
#638=(
GEOMETRIC_REPRESENTATION_CONTEXT(3)
GLOBAL_UNCERTAINTY_ASSIGNED_CONTEXT((#636))
GLOBAL_UNIT_ASSIGNED_CONTEXT((#641,#645,#646))
REPRESENTATION_CONTEXT('','3D')
);
#639=(
GEOMETRIC_REPRESENTATION_CONTEXT(3)
GLOBAL_UNCERTAINTY_ASSIGNED_CONTEXT((#637))
GLOBAL_UNIT_ASSIGNED_CONTEXT((#641,#645,#646))
REPRESENTATION_CONTEXT('','3D')
);
#640=DIMENSIONAL_EXPONENTS(1.,0.,0.,0.,0.,0.,0.);
#641=(
CONVERSION_BASED_UNIT('inch',#644)
LENGTH_UNIT()
NAMED_UNIT(#640)
);
#642=(
LENGTH_UNIT()
NAMED_UNIT(*)
SI_UNIT(.MILLI.,.METRE.)
);
#643=(
LENGTH_UNIT()
NAMED_UNIT(*)
SI_UNIT($,.METRE.)
);
#644=LENGTH_MEASURE_WITH_UNIT(LENGTH_MEASURE(25.4),#642);
#645=(
NAMED_UNIT(*)
PLANE_ANGLE_UNIT()
SI_UNIT($,.RADIAN.)
);
#646=(
NAMED_UNIT(*)
SI_UNIT($,.STERADIAN.)
SOLID_ANGLE_UNIT()
);
#647=SHAPE_DEFINITION_REPRESENTATION(#648,#649);
#648=PRODUCT_DEFINITION_SHAPE('',$,#651);
#649=SHAPE_REPRESENTATION('',(#405),#638);
#650=PRODUCT_DEFINITION_CONTEXT('part definition',#655,'design');
#651=PRODUCT_DEFINITION('2026-09-29-11-09-00-091','A6',#652,#650);
#652=PRODUCT_DEFINITION_FORMATION('',$,#657);
#653=PRODUCT_RELATED_PRODUCT_CATEGORY('A6','A6',(#657));
#654=APPLICATION_PROTOCOL_DEFINITION('international standard',
'automotive_design',2009,#655);
#655=APPLICATION_CONTEXT(
'Core Data for Automotive Mechanical Design Process');
#656=PRODUCT_CONTEXT('part definition',#655,'mechanical');
#657=PRODUCT('2026-09-29-11-09-00-091','A6',$,(#656));
#658=PRESENTATION_STYLE_ASSIGNMENT((#659));
#659=SURFACE_STYLE_USAGE(.BOTH.,#660);
#660=SURFACE_SIDE_STYLE('',(#661));
#661=SURFACE_STYLE_FILL_AREA(#662);
#662=FILL_AREA_STYLE('Steel - Satin',(#663));
#663=FILL_AREA_STYLE_COLOUR('Steel - Satin',#664);
#664=COLOUR_RGB('Steel - Satin',0.627450980392157,0.627450980392157,0.627450980392157);
ENDSEC;
END-ISO-10303-21;
