ISO-10303-21;
HEADER;
/* Generated by software containing ST-Developer
 * from STEP Tools, Inc. (www.steptools.com) 
 */

FILE_DESCRIPTION(
/* description */ (''),
/* implementation_level */ '2;1');

FILE_NAME(
/* name */ 'Motor Mount.step',
/* time_stamp */ '2026-09-16T21:31:36-04:00',
/* author */ (''),
/* organization */ (''),
/* preprocessor_version */ 'ST-DEVELOPER v20.2',
/* originating_system */ 'Autodesk Translation Framework v15.15.0.0',
/* authorisation */ '');

FILE_SCHEMA (('AUTOMOTIVE_DESIGN { 1 0 10303 214 3 1 1 }'));
ENDSEC;

DATA;
#10=MECHANICAL_DESIGN_GEOMETRIC_PRESENTATION_REPRESENTATION('',(#13),#657);
#11=SHAPE_REPRESENTATION_RELATIONSHIP('SRR','None',#664,#12);
#12=ADVANCED_BREP_SHAPE_REPRESENTATION('',(#14),#656);
#13=STYLED_ITEM('',(#673),#14);
#14=MANIFOLD_SOLID_BREP('Body1',#405);
#15=CYLINDRICAL_SURFACE('',#431,2.);
#16=CYLINDRICAL_SURFACE('',#433,2.);
#17=CYLINDRICAL_SURFACE('',#435,2.);
#18=CYLINDRICAL_SURFACE('',#437,2.);
#19=FACE_BOUND('',#63,.T.);
#20=FACE_BOUND('',#64,.T.);
#21=FACE_BOUND('',#65,.T.);
#22=FACE_BOUND('',#66,.T.);
#23=FACE_BOUND('',#73,.T.);
#24=FACE_BOUND('',#74,.T.);
#25=FACE_BOUND('',#75,.T.);
#26=FACE_BOUND('',#76,.T.);
#27=FACE_BOUND('',#78,.T.);
#28=FACE_BOUND('',#81,.T.);
#29=CIRCLE('',#427,2.);
#30=CIRCLE('',#428,2.);
#31=CIRCLE('',#429,2.);
#32=CIRCLE('',#430,2.);
#33=CIRCLE('',#432,2.);
#34=CIRCLE('',#434,2.);
#35=CIRCLE('',#436,2.);
#36=CIRCLE('',#438,2.);
#37=FACE_OUTER_BOUND('',#55,.T.);
#38=FACE_OUTER_BOUND('',#56,.T.);
#39=FACE_OUTER_BOUND('',#57,.T.);
#40=FACE_OUTER_BOUND('',#58,.T.);
#41=FACE_OUTER_BOUND('',#59,.T.);
#42=FACE_OUTER_BOUND('',#60,.T.);
#43=FACE_OUTER_BOUND('',#61,.T.);
#44=FACE_OUTER_BOUND('',#62,.T.);
#45=FACE_OUTER_BOUND('',#67,.T.);
#46=FACE_OUTER_BOUND('',#68,.T.);
#47=FACE_OUTER_BOUND('',#69,.T.);
#48=FACE_OUTER_BOUND('',#70,.T.);
#49=FACE_OUTER_BOUND('',#71,.T.);
#50=FACE_OUTER_BOUND('',#72,.T.);
#51=FACE_OUTER_BOUND('',#77,.T.);
#52=FACE_OUTER_BOUND('',#79,.T.);
#53=FACE_OUTER_BOUND('',#80,.T.);
#54=FACE_OUTER_BOUND('',#82,.T.);
#55=EDGE_LOOP('',(#265,#266,#267,#268));
#56=EDGE_LOOP('',(#269,#270,#271,#272));
#57=EDGE_LOOP('',(#273,#274,#275,#276));
#58=EDGE_LOOP('',(#277,#278,#279,#280,#281,#282,#283,#284,#285,#286,#287,
#288));
#59=EDGE_LOOP('',(#289,#290,#291,#292));
#60=EDGE_LOOP('',(#293,#294,#295,#296));
#61=EDGE_LOOP('',(#297,#298,#299,#300));
#62=EDGE_LOOP('',(#301,#302,#303,#304,#305,#306,#307,#308,#309,#310,#311,
#312));
#63=EDGE_LOOP('',(#313));
#64=EDGE_LOOP('',(#314));
#65=EDGE_LOOP('',(#315));
#66=EDGE_LOOP('',(#316));
#67=EDGE_LOOP('',(#317,#318,#319,#320));
#68=EDGE_LOOP('',(#321,#322,#323,#324));
#69=EDGE_LOOP('',(#325,#326,#327,#328));
#70=EDGE_LOOP('',(#329,#330,#331,#332));
#71=EDGE_LOOP('',(#333,#334,#335,#336));
#72=EDGE_LOOP('',(#337,#338,#339,#340));
#73=EDGE_LOOP('',(#341));
#74=EDGE_LOOP('',(#342));
#75=EDGE_LOOP('',(#343));
#76=EDGE_LOOP('',(#344));
#77=EDGE_LOOP('',(#345,#346,#347,#348,#349,#350,#351));
#78=EDGE_LOOP('',(#352,#353,#354));
#79=EDGE_LOOP('',(#355,#356,#357,#358));
#80=EDGE_LOOP('',(#359,#360,#361,#362,#363,#364,#365));
#81=EDGE_LOOP('',(#366,#367,#368));
#82=EDGE_LOOP('',(#369,#370,#371,#372));
#83=LINE('',#549,#129);
#84=LINE('',#551,#130);
#85=LINE('',#553,#131);
#86=LINE('',#554,#132);
#87=LINE('',#558,#133);
#88=LINE('',#560,#134);
#89=LINE('',#562,#135);
#90=LINE('',#563,#136);
#91=LINE('',#565,#137);
#92=LINE('',#566,#138);
#93=LINE('',#569,#139);
#94=LINE('',#571,#140);
#95=LINE('',#573,#141);
#96=LINE('',#575,#142);
#97=LINE('',#577,#143);
#98=LINE('',#579,#144);
#99=LINE('',#581,#145);
#100=LINE('',#583,#146);
#101=LINE('',#584,#147);
#102=LINE('',#587,#148);
#103=LINE('',#589,#149);
#104=LINE('',#590,#150);
#105=LINE('',#593,#151);
#106=LINE('',#595,#152);
#107=LINE('',#596,#153);
#108=LINE('',#598,#154);
#109=LINE('',#601,#155);
#110=LINE('',#603,#156);
#111=LINE('',#604,#157);
#112=LINE('',#605,#158);
#113=LINE('',#606,#159);
#114=LINE('',#617,#160);
#115=LINE('',#621,#161);
#116=LINE('',#625,#162);
#117=LINE('',#629,#163);
#118=LINE('',#634,#164);
#119=LINE('',#635,#165);
#120=LINE('',#636,#166);
#121=LINE('',#640,#167);
#122=LINE('',#641,#168);
#123=LINE('',#642,#169);
#124=LINE('',#645,#170);
#125=LINE('',#646,#171);
#126=LINE('',#649,#172);
#127=LINE('',#650,#173);
#128=LINE('',#652,#174);
#129=VECTOR('',#449,10.);
#130=VECTOR('',#450,10.);
#131=VECTOR('',#451,10.);
#132=VECTOR('',#452,10.);
#133=VECTOR('',#455,10.);
#134=VECTOR('',#456,10.);
#135=VECTOR('',#457,10.);
#136=VECTOR('',#458,10.);
#137=VECTOR('',#461,10.);
#138=VECTOR('',#462,10.);
#139=VECTOR('',#465,10.);
#140=VECTOR('',#466,10.);
#141=VECTOR('',#467,10.);
#142=VECTOR('',#468,10.);
#143=VECTOR('',#469,10.);
#144=VECTOR('',#470,10.);
#145=VECTOR('',#471,10.);
#146=VECTOR('',#472,10.);
#147=VECTOR('',#473,10.);
#148=VECTOR('',#476,10.);
#149=VECTOR('',#477,10.);
#150=VECTOR('',#478,10.);
#151=VECTOR('',#481,10.);
#152=VECTOR('',#482,10.);
#153=VECTOR('',#483,10.);
#154=VECTOR('',#486,10.);
#155=VECTOR('',#489,10.);
#156=VECTOR('',#490,10.);
#157=VECTOR('',#491,10.);
#158=VECTOR('',#492,10.);
#159=VECTOR('',#493,10.);
#160=VECTOR('',#504,2.);
#161=VECTOR('',#509,2.);
#162=VECTOR('',#514,2.);
#163=VECTOR('',#519,2.);
#164=VECTOR('',#524,10.);
#165=VECTOR('',#525,10.);
#166=VECTOR('',#526,10.);
#167=VECTOR('',#529,10.);
#168=VECTOR('',#530,10.);
#169=VECTOR('',#531,10.);
#170=VECTOR('',#534,10.);
#171=VECTOR('',#535,10.);
#172=VECTOR('',#538,10.);
#173=VECTOR('',#539,10.);
#174=VECTOR('',#542,10.);
#175=VERTEX_POINT('',#547);
#176=VERTEX_POINT('',#548);
#177=VERTEX_POINT('',#550);
#178=VERTEX_POINT('',#552);
#179=VERTEX_POINT('',#556);
#180=VERTEX_POINT('',#557);
#181=VERTEX_POINT('',#559);
#182=VERTEX_POINT('',#561);
#183=VERTEX_POINT('',#568);
#184=VERTEX_POINT('',#570);
#185=VERTEX_POINT('',#572);
#186=VERTEX_POINT('',#574);
#187=VERTEX_POINT('',#576);
#188=VERTEX_POINT('',#578);
#189=VERTEX_POINT('',#580);
#190=VERTEX_POINT('',#582);
#191=VERTEX_POINT('',#586);
#192=VERTEX_POINT('',#588);
#193=VERTEX_POINT('',#592);
#194=VERTEX_POINT('',#594);
#195=VERTEX_POINT('',#600);
#196=VERTEX_POINT('',#602);
#197=VERTEX_POINT('',#607);
#198=VERTEX_POINT('',#609);
#199=VERTEX_POINT('',#611);
#200=VERTEX_POINT('',#613);
#201=VERTEX_POINT('',#616);
#202=VERTEX_POINT('',#620);
#203=VERTEX_POINT('',#624);
#204=VERTEX_POINT('',#628);
#205=VERTEX_POINT('',#632);
#206=VERTEX_POINT('',#633);
#207=VERTEX_POINT('',#638);
#208=VERTEX_POINT('',#639);
#209=VERTEX_POINT('',#644);
#210=VERTEX_POINT('',#648);
#211=EDGE_CURVE('',#175,#176,#83,.T.);
#212=EDGE_CURVE('',#177,#175,#84,.T.);
#213=EDGE_CURVE('',#178,#177,#85,.T.);
#214=EDGE_CURVE('',#176,#178,#86,.T.);
#215=EDGE_CURVE('',#179,#180,#87,.T.);
#216=EDGE_CURVE('',#181,#180,#88,.T.);
#217=EDGE_CURVE('',#182,#181,#89,.T.);
#218=EDGE_CURVE('',#179,#182,#90,.T.);
#219=EDGE_CURVE('',#178,#181,#91,.T.);
#220=EDGE_CURVE('',#182,#177,#92,.T.);
#221=EDGE_CURVE('',#175,#183,#93,.T.);
#222=EDGE_CURVE('',#183,#184,#94,.T.);
#223=EDGE_CURVE('',#184,#185,#95,.T.);
#224=EDGE_CURVE('',#185,#186,#96,.T.);
#225=EDGE_CURVE('',#186,#187,#97,.T.);
#226=EDGE_CURVE('',#187,#188,#98,.T.);
#227=EDGE_CURVE('',#188,#189,#99,.T.);
#228=EDGE_CURVE('',#189,#190,#100,.T.);
#229=EDGE_CURVE('',#190,#179,#101,.T.);
#230=EDGE_CURVE('',#191,#185,#102,.T.);
#231=EDGE_CURVE('',#192,#191,#103,.T.);
#232=EDGE_CURVE('',#186,#192,#104,.T.);
#233=EDGE_CURVE('',#193,#188,#105,.T.);
#234=EDGE_CURVE('',#194,#187,#106,.T.);
#235=EDGE_CURVE('',#193,#194,#107,.T.);
#236=EDGE_CURVE('',#194,#192,#108,.T.);
#237=EDGE_CURVE('',#180,#195,#109,.T.);
#238=EDGE_CURVE('',#196,#195,#110,.T.);
#239=EDGE_CURVE('',#193,#196,#111,.T.);
#240=EDGE_CURVE('',#184,#191,#112,.T.);
#241=EDGE_CURVE('',#183,#176,#113,.T.);
#242=EDGE_CURVE('',#197,#197,#29,.T.);
#243=EDGE_CURVE('',#198,#198,#30,.T.);
#244=EDGE_CURVE('',#199,#199,#31,.T.);
#245=EDGE_CURVE('',#200,#200,#32,.T.);
#246=EDGE_CURVE('',#200,#201,#114,.T.);
#247=EDGE_CURVE('',#201,#201,#33,.T.);
#248=EDGE_CURVE('',#199,#202,#115,.T.);
#249=EDGE_CURVE('',#202,#202,#34,.T.);
#250=EDGE_CURVE('',#198,#203,#116,.T.);
#251=EDGE_CURVE('',#203,#203,#35,.T.);
#252=EDGE_CURVE('',#197,#204,#117,.T.);
#253=EDGE_CURVE('',#204,#204,#36,.T.);
#254=EDGE_CURVE('',#205,#206,#118,.T.);
#255=EDGE_CURVE('',#206,#196,#119,.T.);
#256=EDGE_CURVE('',#195,#205,#120,.T.);
#257=EDGE_CURVE('',#207,#208,#121,.T.);
#258=EDGE_CURVE('',#208,#206,#122,.T.);
#259=EDGE_CURVE('',#207,#205,#123,.T.);
#260=EDGE_CURVE('',#209,#190,#124,.T.);
#261=EDGE_CURVE('',#209,#207,#125,.T.);
#262=EDGE_CURVE('',#210,#209,#126,.T.);
#263=EDGE_CURVE('',#210,#189,#127,.T.);
#264=EDGE_CURVE('',#208,#210,#128,.T.);
#265=ORIENTED_EDGE('',*,*,#211,.F.);
#266=ORIENTED_EDGE('',*,*,#212,.F.);
#267=ORIENTED_EDGE('',*,*,#213,.F.);
#268=ORIENTED_EDGE('',*,*,#214,.F.);
#269=ORIENTED_EDGE('',*,*,#215,.T.);
#270=ORIENTED_EDGE('',*,*,#216,.F.);
#271=ORIENTED_EDGE('',*,*,#217,.F.);
#272=ORIENTED_EDGE('',*,*,#218,.F.);
#273=ORIENTED_EDGE('',*,*,#217,.T.);
#274=ORIENTED_EDGE('',*,*,#219,.F.);
#275=ORIENTED_EDGE('',*,*,#213,.T.);
#276=ORIENTED_EDGE('',*,*,#220,.F.);
#277=ORIENTED_EDGE('',*,*,#218,.T.);
#278=ORIENTED_EDGE('',*,*,#220,.T.);
#279=ORIENTED_EDGE('',*,*,#212,.T.);
#280=ORIENTED_EDGE('',*,*,#221,.T.);
#281=ORIENTED_EDGE('',*,*,#222,.T.);
#282=ORIENTED_EDGE('',*,*,#223,.T.);
#283=ORIENTED_EDGE('',*,*,#224,.T.);
#284=ORIENTED_EDGE('',*,*,#225,.T.);
#285=ORIENTED_EDGE('',*,*,#226,.T.);
#286=ORIENTED_EDGE('',*,*,#227,.T.);
#287=ORIENTED_EDGE('',*,*,#228,.T.);
#288=ORIENTED_EDGE('',*,*,#229,.T.);
#289=ORIENTED_EDGE('',*,*,#230,.F.);
#290=ORIENTED_EDGE('',*,*,#231,.F.);
#291=ORIENTED_EDGE('',*,*,#232,.F.);
#292=ORIENTED_EDGE('',*,*,#224,.F.);
#293=ORIENTED_EDGE('',*,*,#233,.T.);
#294=ORIENTED_EDGE('',*,*,#226,.F.);
#295=ORIENTED_EDGE('',*,*,#234,.F.);
#296=ORIENTED_EDGE('',*,*,#235,.F.);
#297=ORIENTED_EDGE('',*,*,#234,.T.);
#298=ORIENTED_EDGE('',*,*,#225,.F.);
#299=ORIENTED_EDGE('',*,*,#232,.T.);
#300=ORIENTED_EDGE('',*,*,#236,.F.);
#301=ORIENTED_EDGE('',*,*,#216,.T.);
#302=ORIENTED_EDGE('',*,*,#237,.T.);
#303=ORIENTED_EDGE('',*,*,#238,.F.);
#304=ORIENTED_EDGE('',*,*,#239,.F.);
#305=ORIENTED_EDGE('',*,*,#235,.T.);
#306=ORIENTED_EDGE('',*,*,#236,.T.);
#307=ORIENTED_EDGE('',*,*,#231,.T.);
#308=ORIENTED_EDGE('',*,*,#240,.F.);
#309=ORIENTED_EDGE('',*,*,#222,.F.);
#310=ORIENTED_EDGE('',*,*,#241,.T.);
#311=ORIENTED_EDGE('',*,*,#214,.T.);
#312=ORIENTED_EDGE('',*,*,#219,.T.);
#313=ORIENTED_EDGE('',*,*,#242,.T.);
#314=ORIENTED_EDGE('',*,*,#243,.T.);
#315=ORIENTED_EDGE('',*,*,#244,.T.);
#316=ORIENTED_EDGE('',*,*,#245,.T.);
#317=ORIENTED_EDGE('',*,*,#245,.F.);
#318=ORIENTED_EDGE('',*,*,#246,.T.);
#319=ORIENTED_EDGE('',*,*,#247,.F.);
#320=ORIENTED_EDGE('',*,*,#246,.F.);
#321=ORIENTED_EDGE('',*,*,#244,.F.);
#322=ORIENTED_EDGE('',*,*,#248,.T.);
#323=ORIENTED_EDGE('',*,*,#249,.F.);
#324=ORIENTED_EDGE('',*,*,#248,.F.);
#325=ORIENTED_EDGE('',*,*,#243,.F.);
#326=ORIENTED_EDGE('',*,*,#250,.T.);
#327=ORIENTED_EDGE('',*,*,#251,.F.);
#328=ORIENTED_EDGE('',*,*,#250,.F.);
#329=ORIENTED_EDGE('',*,*,#242,.F.);
#330=ORIENTED_EDGE('',*,*,#252,.T.);
#331=ORIENTED_EDGE('',*,*,#253,.F.);
#332=ORIENTED_EDGE('',*,*,#252,.F.);
#333=ORIENTED_EDGE('',*,*,#254,.T.);
#334=ORIENTED_EDGE('',*,*,#255,.T.);
#335=ORIENTED_EDGE('',*,*,#238,.T.);
#336=ORIENTED_EDGE('',*,*,#256,.T.);
#337=ORIENTED_EDGE('',*,*,#257,.T.);
#338=ORIENTED_EDGE('',*,*,#258,.T.);
#339=ORIENTED_EDGE('',*,*,#254,.F.);
#340=ORIENTED_EDGE('',*,*,#259,.F.);
#341=ORIENTED_EDGE('',*,*,#247,.T.);
#342=ORIENTED_EDGE('',*,*,#249,.T.);
#343=ORIENTED_EDGE('',*,*,#251,.T.);
#344=ORIENTED_EDGE('',*,*,#253,.T.);
#345=ORIENTED_EDGE('',*,*,#229,.F.);
#346=ORIENTED_EDGE('',*,*,#260,.F.);
#347=ORIENTED_EDGE('',*,*,#261,.T.);
#348=ORIENTED_EDGE('',*,*,#259,.T.);
#349=ORIENTED_EDGE('',*,*,#256,.F.);
#350=ORIENTED_EDGE('',*,*,#237,.F.);
#351=ORIENTED_EDGE('',*,*,#215,.F.);
#352=ORIENTED_EDGE('',*,*,#211,.T.);
#353=ORIENTED_EDGE('',*,*,#241,.F.);
#354=ORIENTED_EDGE('',*,*,#221,.F.);
#355=ORIENTED_EDGE('',*,*,#262,.T.);
#356=ORIENTED_EDGE('',*,*,#260,.T.);
#357=ORIENTED_EDGE('',*,*,#228,.F.);
#358=ORIENTED_EDGE('',*,*,#263,.F.);
#359=ORIENTED_EDGE('',*,*,#239,.T.);
#360=ORIENTED_EDGE('',*,*,#255,.F.);
#361=ORIENTED_EDGE('',*,*,#258,.F.);
#362=ORIENTED_EDGE('',*,*,#264,.T.);
#363=ORIENTED_EDGE('',*,*,#263,.T.);
#364=ORIENTED_EDGE('',*,*,#227,.F.);
#365=ORIENTED_EDGE('',*,*,#233,.F.);
#366=ORIENTED_EDGE('',*,*,#230,.T.);
#367=ORIENTED_EDGE('',*,*,#223,.F.);
#368=ORIENTED_EDGE('',*,*,#240,.T.);
#369=ORIENTED_EDGE('',*,*,#264,.F.);
#370=ORIENTED_EDGE('',*,*,#257,.F.);
#371=ORIENTED_EDGE('',*,*,#261,.F.);
#372=ORIENTED_EDGE('',*,*,#262,.F.);
#373=PLANE('',#419);
#374=PLANE('',#420);
#375=PLANE('',#421);
#376=PLANE('',#422);
#377=PLANE('',#423);
#378=PLANE('',#424);
#379=PLANE('',#425);
#380=PLANE('',#426);
#381=PLANE('',#439);
#382=PLANE('',#440);
#383=PLANE('',#441);
#384=PLANE('',#442);
#385=PLANE('',#443);
#386=PLANE('',#444);
#387=ADVANCED_FACE('',(#37),#373,.T.);
#388=ADVANCED_FACE('',(#38),#374,.T.);
#389=ADVANCED_FACE('',(#39),#375,.T.);
#390=ADVANCED_FACE('',(#40),#376,.T.);
#391=ADVANCED_FACE('',(#41),#377,.T.);
#392=ADVANCED_FACE('',(#42),#378,.T.);
#393=ADVANCED_FACE('',(#43),#379,.T.);
#394=ADVANCED_FACE('',(#44,#19,#20,#21,#22),#380,.T.);
#395=ADVANCED_FACE('',(#45),#15,.F.);
#396=ADVANCED_FACE('',(#46),#16,.F.);
#397=ADVANCED_FACE('',(#47),#17,.F.);
#398=ADVANCED_FACE('',(#48),#18,.F.);
#399=ADVANCED_FACE('',(#49),#381,.T.);
#400=ADVANCED_FACE('',(#50,#23,#24,#25,#26),#382,.T.);
#401=ADVANCED_FACE('',(#51,#27),#383,.T.);
#402=ADVANCED_FACE('',(#52),#384,.T.);
#403=ADVANCED_FACE('',(#53,#28),#385,.T.);
#404=ADVANCED_FACE('',(#54),#386,.F.);
#405=CLOSED_SHELL('',(#387,#388,#389,#390,#391,#392,#393,#394,#395,#396,
#397,#398,#399,#400,#401,#402,#403,#404));
#406=DERIVED_UNIT_ELEMENT(#408,1.);
#407=DERIVED_UNIT_ELEMENT(#659,-3.);
#408=(
MASS_UNIT()
NAMED_UNIT(*)
SI_UNIT(.KILO.,.GRAM.)
);
#409=DERIVED_UNIT((#406,#407));
#410=MEASURE_REPRESENTATION_ITEM('density measure',
POSITIVE_RATIO_MEASURE(7850.),#409);
#411=PROPERTY_DEFINITION_REPRESENTATION(#416,#413);
#412=PROPERTY_DEFINITION_REPRESENTATION(#417,#414);
#413=REPRESENTATION('material name',(#415),#656);
#414=REPRESENTATION('density',(#410),#656);
#415=DESCRIPTIVE_REPRESENTATION_ITEM('Steel','Steel');
#416=PROPERTY_DEFINITION('material property','material name',#666);
#417=PROPERTY_DEFINITION('material property','density of part',#666);
#418=AXIS2_PLACEMENT_3D('',#545,#445,#446);
#419=AXIS2_PLACEMENT_3D('',#546,#447,#448);
#420=AXIS2_PLACEMENT_3D('',#555,#453,#454);
#421=AXIS2_PLACEMENT_3D('',#564,#459,#460);
#422=AXIS2_PLACEMENT_3D('',#567,#463,#464);
#423=AXIS2_PLACEMENT_3D('',#585,#474,#475);
#424=AXIS2_PLACEMENT_3D('',#591,#479,#480);
#425=AXIS2_PLACEMENT_3D('',#597,#484,#485);
#426=AXIS2_PLACEMENT_3D('',#599,#487,#488);
#427=AXIS2_PLACEMENT_3D('',#608,#494,#495);
#428=AXIS2_PLACEMENT_3D('',#610,#496,#497);
#429=AXIS2_PLACEMENT_3D('',#612,#498,#499);
#430=AXIS2_PLACEMENT_3D('',#614,#500,#501);
#431=AXIS2_PLACEMENT_3D('',#615,#502,#503);
#432=AXIS2_PLACEMENT_3D('',#618,#505,#506);
#433=AXIS2_PLACEMENT_3D('',#619,#507,#508);
#434=AXIS2_PLACEMENT_3D('',#622,#510,#511);
#435=AXIS2_PLACEMENT_3D('',#623,#512,#513);
#436=AXIS2_PLACEMENT_3D('',#626,#515,#516);
#437=AXIS2_PLACEMENT_3D('',#627,#517,#518);
#438=AXIS2_PLACEMENT_3D('',#630,#520,#521);
#439=AXIS2_PLACEMENT_3D('',#631,#522,#523);
#440=AXIS2_PLACEMENT_3D('',#637,#527,#528);
#441=AXIS2_PLACEMENT_3D('',#643,#532,#533);
#442=AXIS2_PLACEMENT_3D('',#647,#536,#537);
#443=AXIS2_PLACEMENT_3D('',#651,#540,#541);
#444=AXIS2_PLACEMENT_3D('',#653,#543,#544);
#445=DIRECTION('axis',(0.,0.,1.));
#446=DIRECTION('refdir',(1.,0.,0.));
#447=DIRECTION('center_axis',(0.,-0.707106781186548,-0.707106781186547));
#448=DIRECTION('ref_axis',(0.,0.707106781186547,-0.707106781186548));
#449=DIRECTION('',(0.,-0.707106781186547,0.707106781186548));
#450=DIRECTION('',(-1.,0.,0.));
#451=DIRECTION('',(0.,0.707106781186547,-0.707106781186548));
#452=DIRECTION('',(1.,0.,0.));
#453=DIRECTION('center_axis',(0.,0.707106781186548,0.707106781186547));
#454=DIRECTION('ref_axis',(0.,-0.707106781186547,0.707106781186548));
#455=DIRECTION('',(0.,-0.707106781186547,0.707106781186548));
#456=DIRECTION('',(-1.,0.,0.));
#457=DIRECTION('',(0.,-0.707106781186547,0.707106781186548));
#458=DIRECTION('',(1.,0.,0.));
#459=DIRECTION('center_axis',(1.,0.,0.));
#460=DIRECTION('ref_axis',(0.,0.,-1.));
#461=DIRECTION('',(0.,0.,1.));
#462=DIRECTION('',(0.,-1.,0.));
#463=DIRECTION('center_axis',(0.,0.,1.));
#464=DIRECTION('ref_axis',(1.,0.,0.));
#465=DIRECTION('',(-1.03276560430247E-16,-1.,0.));
#466=DIRECTION('',(1.,0.,0.));
#467=DIRECTION('',(-1.03276560430247E-16,1.,0.));
#468=DIRECTION('',(-1.,0.,0.));
#469=DIRECTION('',(0.,1.,0.));
#470=DIRECTION('',(1.,0.,0.));
#471=DIRECTION('',(-1.03276560430247E-16,1.,0.));
#472=DIRECTION('',(-1.,-2.3373116307898E-16,0.));
#473=DIRECTION('',(-1.03276560430247E-16,-1.,0.));
#474=DIRECTION('center_axis',(0.,-0.707106781186548,-0.707106781186548));
#475=DIRECTION('ref_axis',(0.,-0.707106781186548,0.707106781186548));
#476=DIRECTION('',(0.,0.707106781186547,-0.707106781186547));
#477=DIRECTION('',(1.,0.,0.));
#478=DIRECTION('',(0.,-0.707106781186547,0.707106781186547));
#479=DIRECTION('center_axis',(0.,0.707106781186548,0.707106781186548));
#480=DIRECTION('ref_axis',(0.,0.707106781186548,-0.707106781186548));
#481=DIRECTION('',(0.,0.707106781186547,-0.707106781186547));
#482=DIRECTION('',(0.,0.707106781186547,-0.707106781186547));
#483=DIRECTION('',(-1.,0.,0.));
#484=DIRECTION('center_axis',(-1.,0.,0.));
#485=DIRECTION('ref_axis',(0.,0.,1.));
#486=DIRECTION('',(0.,0.,-1.));
#487=DIRECTION('center_axis',(0.,1.,0.));
#488=DIRECTION('ref_axis',(-1.,0.,0.));
#489=DIRECTION('',(0.,0.,1.));
#490=DIRECTION('',(-1.,0.,0.));
#491=DIRECTION('',(0.,0.,1.));
#492=DIRECTION('',(0.,0.,1.));
#493=DIRECTION('',(0.,0.,1.));
#494=DIRECTION('center_axis',(0.,-1.,0.));
#495=DIRECTION('ref_axis',(-1.,0.,0.));
#496=DIRECTION('center_axis',(0.,-1.,0.));
#497=DIRECTION('ref_axis',(-1.,0.,0.));
#498=DIRECTION('center_axis',(0.,-1.,0.));
#499=DIRECTION('ref_axis',(-1.,0.,0.));
#500=DIRECTION('center_axis',(0.,-1.,0.));
#501=DIRECTION('ref_axis',(-1.,0.,0.));
#502=DIRECTION('center_axis',(0.,-1.,0.));
#503=DIRECTION('ref_axis',(-1.,0.,0.));
#504=DIRECTION('',(0.,-1.,0.));
#505=DIRECTION('center_axis',(-1.1686558153949E-16,1.,0.));
#506=DIRECTION('ref_axis',(-1.,0.,0.));
#507=DIRECTION('center_axis',(0.,-1.,0.));
#508=DIRECTION('ref_axis',(-1.,0.,0.));
#509=DIRECTION('',(0.,-1.,0.));
#510=DIRECTION('center_axis',(-1.1686558153949E-16,1.,0.));
#511=DIRECTION('ref_axis',(-1.,0.,0.));
#512=DIRECTION('center_axis',(0.,-1.,0.));
#513=DIRECTION('ref_axis',(-1.,0.,0.));
#514=DIRECTION('',(0.,-1.,0.));
#515=DIRECTION('center_axis',(-1.1686558153949E-16,1.,0.));
#516=DIRECTION('ref_axis',(-1.,0.,0.));
#517=DIRECTION('center_axis',(0.,-1.,0.));
#518=DIRECTION('ref_axis',(-1.,0.,0.));
#519=DIRECTION('',(0.,-1.,0.));
#520=DIRECTION('center_axis',(-1.1686558153949E-16,1.,0.));
#521=DIRECTION('ref_axis',(-1.,0.,0.));
#522=DIRECTION('center_axis',(0.,0.,1.));
#523=DIRECTION('ref_axis',(1.,0.,0.));
#524=DIRECTION('',(1.,0.,0.));
#525=DIRECTION('',(4.44089209850063E-16,1.,0.));
#526=DIRECTION('',(0.,-1.,0.));
#527=DIRECTION('center_axis',(1.1686558153949E-16,-1.,0.));
#528=DIRECTION('ref_axis',(1.,1.1686558153949E-16,0.));
#529=DIRECTION('',(1.,1.1686558153949E-16,0.));
#530=DIRECTION('',(0.,0.,1.));
#531=DIRECTION('',(0.,0.,1.));
#532=DIRECTION('center_axis',(-1.,1.03276560430247E-16,0.));
#533=DIRECTION('ref_axis',(-1.03276560430247E-16,-1.,0.));
#534=DIRECTION('',(0.,0.,1.));
#535=DIRECTION('',(-1.03276560430247E-16,-1.,0.));
#536=DIRECTION('center_axis',(-2.3373116307898E-16,1.,0.));
#537=DIRECTION('ref_axis',(-1.,-2.3373116307898E-16,0.));
#538=DIRECTION('',(-1.,-2.3373116307898E-16,0.));
#539=DIRECTION('',(0.,0.,1.));
#540=DIRECTION('center_axis',(1.,1.03276560430247E-16,0.));
#541=DIRECTION('ref_axis',(-1.03276560430247E-16,1.,0.));
#542=DIRECTION('',(-1.03276560430247E-16,1.,0.));
#543=DIRECTION('center_axis',(0.,0.,1.));
#544=DIRECTION('ref_axis',(1.,0.,0.));
#545=CARTESIAN_POINT('',(0.,0.,0.));
#546=CARTESIAN_POINT('Origin',(-19.,-16.5,22.1715728752538));
#547=CARTESIAN_POINT('',(-19.,0.671572875253815,5.));
#548=CARTESIAN_POINT('',(-19.,-16.5,22.1715728752538));
#549=CARTESIAN_POINT('',(-19.,2.08578643762691,3.58578643762691));
#550=CARTESIAN_POINT('',(-17.,0.671572875253815,5.));
#551=CARTESIAN_POINT('',(-9.5,0.671572875253812,5.));
#552=CARTESIAN_POINT('',(-17.,-16.5,22.1715728752538));
#553=CARTESIAN_POINT('',(-17.,2.08578643762691,3.58578643762691));
#554=CARTESIAN_POINT('',(2.22044604925031E-15,-16.5,22.1715728752538));
#555=CARTESIAN_POINT('Origin',(-19.,6.32842712474619,4.99999999999999));
#556=CARTESIAN_POINT('',(-19.,6.32842712474619,5.));
#557=CARTESIAN_POINT('',(-19.,-16.5,27.8284271247462));
#558=CARTESIAN_POINT('',(-19.,-15.0857864376269,26.4142135623731));
#559=CARTESIAN_POINT('',(-17.,-16.5,27.8284271247462));
#560=CARTESIAN_POINT('',(2.22044604925031E-15,-16.5,27.8284271247462));
#561=CARTESIAN_POINT('',(-17.,6.32842712474619,5.));
#562=CARTESIAN_POINT('',(-17.,-15.0857864376269,26.4142135623731));
#563=CARTESIAN_POINT('',(-9.5,6.32842712474618,5.));
#564=CARTESIAN_POINT('Origin',(-17.,-5.0857864376269,16.4142135623731));
#565=CARTESIAN_POINT('',(-17.,-16.5,10.7071067811865));
#566=CARTESIAN_POINT('',(-17.,-2.54289321881345,5.));
#567=CARTESIAN_POINT('Origin',(0.,4.44089209850063E-15,5.));
#568=CARTESIAN_POINT('',(-19.,-16.5,5.));
#569=CARTESIAN_POINT('',(-19.,21.5,5.));
#570=CARTESIAN_POINT('',(19.,-16.5,5.));
#571=CARTESIAN_POINT('',(9.5,-16.5,5.));
#572=CARTESIAN_POINT('',(19.,0.671572875253812,5.));
#573=CARTESIAN_POINT('',(19.,-21.5,5.));
#574=CARTESIAN_POINT('',(17.,0.671572875253812,5.));
#575=CARTESIAN_POINT('',(9.5,0.671572875253812,5.));
#576=CARTESIAN_POINT('',(17.,6.32842712474619,5.));
#577=CARTESIAN_POINT('',(17.,-2.54289321881345,5.));
#578=CARTESIAN_POINT('',(19.,6.32842712474619,5.));
#579=CARTESIAN_POINT('',(9.5,6.32842712474619,5.));
#580=CARTESIAN_POINT('',(19.,21.5,5.));
#581=CARTESIAN_POINT('',(19.,-21.5,5.));
#582=CARTESIAN_POINT('',(-19.,21.5,5.));
#583=CARTESIAN_POINT('',(19.,21.5,5.));
#584=CARTESIAN_POINT('',(-19.,21.5,5.));
#585=CARTESIAN_POINT('Origin',(19.,0.671572875253812,5.));
#586=CARTESIAN_POINT('',(19.,-16.5,22.1715728752538));
#587=CARTESIAN_POINT('',(19.,-17.9142135623731,23.5857864376269));
#588=CARTESIAN_POINT('',(17.,-16.5,22.1715728752538));
#589=CARTESIAN_POINT('',(19.,-16.5,22.1715728752538));
#590=CARTESIAN_POINT('',(17.,-17.9142135623731,23.5857864376269));
#591=CARTESIAN_POINT('Origin',(19.,-16.5,27.8284271247462));
#592=CARTESIAN_POINT('',(19.,-16.5,27.8284271247462));
#593=CARTESIAN_POINT('',(19.,4.9142135623731,6.4142135623731));
#594=CARTESIAN_POINT('',(17.,-16.5,27.8284271247462));
#595=CARTESIAN_POINT('',(17.,4.9142135623731,6.4142135623731));
#596=CARTESIAN_POINT('',(19.,-16.5,27.8284271247462));
#597=CARTESIAN_POINT('Origin',(17.,-5.0857864376269,16.4142135623731));
#598=CARTESIAN_POINT('',(17.,-16.5,10.7071067811865));
#599=CARTESIAN_POINT('Origin',(19.,-16.5,5.));
#600=CARTESIAN_POINT('',(-19.,-16.5,43.));
#601=CARTESIAN_POINT('',(-19.,-16.5,5.));
#602=CARTESIAN_POINT('',(19.,-16.5,43.));
#603=CARTESIAN_POINT('',(-19.,-16.5,43.));
#604=CARTESIAN_POINT('',(19.,-16.5,5.));
#605=CARTESIAN_POINT('',(19.,-16.5,5.));
#606=CARTESIAN_POINT('',(-19.,-16.5,5.));
#607=CARTESIAN_POINT('',(13.,-16.5,13.));
#608=CARTESIAN_POINT('Origin',(11.,-16.5,13.));
#609=CARTESIAN_POINT('',(13.,-16.5,35.));
#610=CARTESIAN_POINT('Origin',(11.,-16.5,35.));
#611=CARTESIAN_POINT('',(-8.99999999999999,-16.5,13.));
#612=CARTESIAN_POINT('Origin',(-11.,-16.5,13.));
#613=CARTESIAN_POINT('',(-8.99999999999999,-16.5,35.));
#614=CARTESIAN_POINT('Origin',(-11.,-16.5,35.));
#615=CARTESIAN_POINT('Origin',(-11.,-16.5,35.));
#616=CARTESIAN_POINT('',(-8.99999999999999,-21.5,35.));
#617=CARTESIAN_POINT('',(-8.99999999999999,-16.5,35.));
#618=CARTESIAN_POINT('Origin',(-11.,-21.5,35.));
#619=CARTESIAN_POINT('Origin',(-11.,-16.5,13.));
#620=CARTESIAN_POINT('',(-8.99999999999999,-21.5,13.));
#621=CARTESIAN_POINT('',(-8.99999999999999,-16.5,13.));
#622=CARTESIAN_POINT('Origin',(-11.,-21.5,13.));
#623=CARTESIAN_POINT('Origin',(11.,-16.5,35.));
#624=CARTESIAN_POINT('',(13.,-21.5,35.));
#625=CARTESIAN_POINT('',(13.,-16.5,35.));
#626=CARTESIAN_POINT('Origin',(11.,-21.5,35.));
#627=CARTESIAN_POINT('Origin',(11.,-16.5,13.));
#628=CARTESIAN_POINT('',(13.,-21.5,13.));
#629=CARTESIAN_POINT('',(13.,-16.5,13.));
#630=CARTESIAN_POINT('Origin',(11.,-21.5,13.));
#631=CARTESIAN_POINT('Origin',(4.44089209850063E-15,-19.,43.));
#632=CARTESIAN_POINT('',(-19.,-21.5,43.));
#633=CARTESIAN_POINT('',(19.,-21.5,43.));
#634=CARTESIAN_POINT('',(19.,-21.5,43.));
#635=CARTESIAN_POINT('',(19.,-16.5,43.));
#636=CARTESIAN_POINT('',(-19.,-21.5,43.));
#637=CARTESIAN_POINT('Origin',(-19.,-21.5,0.));
#638=CARTESIAN_POINT('',(-19.,-21.5,0.));
#639=CARTESIAN_POINT('',(19.,-21.5,0.));
#640=CARTESIAN_POINT('',(-19.,-21.5,0.));
#641=CARTESIAN_POINT('',(19.,-21.5,0.));
#642=CARTESIAN_POINT('',(-19.,-21.5,0.));
#643=CARTESIAN_POINT('Origin',(-19.,21.5,0.));
#644=CARTESIAN_POINT('',(-19.,21.5,0.));
#645=CARTESIAN_POINT('',(-19.,21.5,0.));
#646=CARTESIAN_POINT('',(-19.,21.5,0.));
#647=CARTESIAN_POINT('Origin',(19.,21.5,0.));
#648=CARTESIAN_POINT('',(19.,21.5,0.));
#649=CARTESIAN_POINT('',(19.,21.5,0.));
#650=CARTESIAN_POINT('',(19.,21.5,0.));
#651=CARTESIAN_POINT('Origin',(19.,-21.5,0.));
#652=CARTESIAN_POINT('',(19.,-21.5,0.));
#653=CARTESIAN_POINT('Origin',(0.,4.44089209850063E-15,0.));
#654=UNCERTAINTY_MEASURE_WITH_UNIT(LENGTH_MEASURE(0.01),#658,
'DISTANCE_ACCURACY_VALUE',
'Maximum model space distance between geometric entities at asserted c
onnectivities');
#655=UNCERTAINTY_MEASURE_WITH_UNIT(LENGTH_MEASURE(0.01),#658,
'DISTANCE_ACCURACY_VALUE',
'Maximum model space distance between geometric entities at asserted c
onnectivities');
#656=(
GEOMETRIC_REPRESENTATION_CONTEXT(3)
GLOBAL_UNCERTAINTY_ASSIGNED_CONTEXT((#654))
GLOBAL_UNIT_ASSIGNED_CONTEXT((#658,#660,#661))
REPRESENTATION_CONTEXT('','3D')
);
#657=(
GEOMETRIC_REPRESENTATION_CONTEXT(3)
GLOBAL_UNCERTAINTY_ASSIGNED_CONTEXT((#655))
GLOBAL_UNIT_ASSIGNED_CONTEXT((#658,#660,#661))
REPRESENTATION_CONTEXT('','3D')
);
#658=(
LENGTH_UNIT()
NAMED_UNIT(*)
SI_UNIT(.MILLI.,.METRE.)
);
#659=(
LENGTH_UNIT()
NAMED_UNIT(*)
SI_UNIT($,.METRE.)
);
#660=(
NAMED_UNIT(*)
PLANE_ANGLE_UNIT()
SI_UNIT($,.RADIAN.)
);
#661=(
NAMED_UNIT(*)
SI_UNIT($,.STERADIAN.)
SOLID_ANGLE_UNIT()
);
#662=SHAPE_DEFINITION_REPRESENTATION(#663,#664);
#663=PRODUCT_DEFINITION_SHAPE('',$,#666);
#664=SHAPE_REPRESENTATION('',(#418),#656);
#665=PRODUCT_DEFINITION_CONTEXT('part definition',#670,'design');
#666=PRODUCT_DEFINITION('2026-09-16-20-51-14-516','Motor Mount',#667,#665);
#667=PRODUCT_DEFINITION_FORMATION('',$,#672);
#668=PRODUCT_RELATED_PRODUCT_CATEGORY('Motor Mount','Motor Mount',(#672));
#669=APPLICATION_PROTOCOL_DEFINITION('international standard',
'automotive_design',2009,#670);
#670=APPLICATION_CONTEXT(
'Core Data for Automotive Mechanical Design Process');
#671=PRODUCT_CONTEXT('part definition',#670,'mechanical');
#672=PRODUCT('2026-09-16-20-51-14-516','Motor Mount',$,(#671));
#673=PRESENTATION_STYLE_ASSIGNMENT((#674));
#674=SURFACE_STYLE_USAGE(.BOTH.,#675);
#675=SURFACE_SIDE_STYLE('',(#676));
#676=SURFACE_STYLE_FILL_AREA(#677);
#677=FILL_AREA_STYLE('Steel - Satin',(#678));
#678=FILL_AREA_STYLE_COLOUR('Steel - Satin',#679);
#679=COLOUR_RGB('Steel - Satin',0.627450980392157,0.627450980392157,0.627450980392157);
ENDSEC;
END-ISO-10303-21;
